<svg width="35" height="35" viewBox="0 0 35 35" fill="none" xmlns="http://www.w3.org/2000/svg">
<path d="M29.1811 20.8169C30.0931 17.9259 30.5496 14.9106 30.5342 11.8792C30.5014 10.2528 30.7326 8.19213 28.9554 7.43268L18.0719 2.5001C17.616 2.2947 17.1216 2.18848 16.6216 2.18848C16.1215 2.18848 15.6271 2.2947 15.1712 2.5001L4.28897 7.43212C3.87094 7.61985 3.51132 7.91689 3.248 8.29192C2.98468 8.66695 2.82742 9.10608 2.79281 9.56301C2.41672 14.0114 2.54574 29.156 16.6217 32.8137C18.6389 32.31 20.552 31.4562 22.2741 30.2912C23.3733 31.3535 24.8421 31.9474 26.3706 31.9475C32.5388 31.872 34.5161 23.7457 29.1811 20.8169ZM16.622 31.6991C3.5445 27.9832 3.56425 13.8894 3.88335 9.64472C3.9034 9.38381 3.99352 9.13315 4.1442 8.9192C4.29488 8.70526 4.50053 8.53597 4.73945 8.4292L15.6217 3.49665C15.936 3.35514 16.2767 3.28196 16.6214 3.28196C16.9661 3.28196 17.3069 3.35514 17.6212 3.49665L28.5047 8.42974C29.7858 9.05234 29.3186 10.6937 29.4405 11.8792C29.4551 14.7636 29.0268 17.6332 28.1707 20.3876C27.6201 20.2125 27.0468 20.1192 26.4691 20.1108C27.1847 17.8503 27.5432 15.492 27.5317 13.1209C27.6079 11.6812 27.4 10.0282 25.8931 9.4071L17.7478 5.71512C17.3932 5.55639 17.0091 5.47438 16.6206 5.47447C16.2321 5.47456 15.848 5.55676 15.4935 5.71567L7.35125 9.40708C6.89636 9.61019 6.50628 9.9348 6.2239 10.3452C5.94152 10.7556 5.77778 11.236 5.75069 11.7334C5.55736 15.1429 5.7595 26.4959 16.4762 29.4524C18.0111 29.2748 19.4547 28.4532 20.7041 27.736C20.8915 28.3521 21.1786 28.9333 21.5539 29.4566C20.036 30.4551 18.3722 31.2116 16.622 31.6991ZM20.4501 26.0264C20.4501 26.2138 20.4611 26.3986 20.4782 26.5817C19.2951 27.3743 17.9936 27.9737 16.6222 28.3576C7.10532 25.6355 6.61105 15.8793 6.84284 11.7938C6.85932 11.4962 6.95762 11.2089 7.12691 10.9637C7.29619 10.7184 7.52989 10.5246 7.80227 10.4036L15.9432 6.71276C16.1562 6.61722 16.3871 6.56778 16.6206 6.56769C16.8541 6.56759 17.0849 6.61684 17.2981 6.71221L25.4425 10.4036C25.7148 10.525 25.9483 10.7192 26.1174 10.9647C26.2865 11.2103 26.3847 11.4977 26.4011 11.7954C26.5933 14.6476 26.2113 17.5093 25.2778 20.2112C23.9221 20.4672 22.6981 21.188 21.8168 22.2495C20.9356 23.311 20.4522 24.6467 20.4501 26.0264ZM26.3706 30.8537C25.0909 30.8523 23.8639 30.3432 22.959 29.4382C22.0541 28.5332 21.5452 27.3062 21.5438 26.0264C21.7968 19.6273 30.9458 19.6296 31.198 26.0264C31.1965 27.3063 30.6875 28.5333 29.7825 29.4382C28.8775 30.3432 27.6505 30.8523 26.3706 30.8537Z" fill="black"/>
<path d="M26.3676 24.0325C26.463 24.0319 26.5576 24.0501 26.646 24.0861C26.7343 24.1222 26.8147 24.1753 26.8824 24.2426C26.9502 24.3098 27.004 24.3897 27.0407 24.4778C27.0775 24.5658 27.0964 24.6603 27.0965 24.7557C27.0993 24.8989 27.1582 25.0353 27.2604 25.1356C27.3627 25.2359 27.5002 25.292 27.6434 25.292C27.7867 25.292 27.9242 25.2359 28.0264 25.1356C28.1287 25.0353 28.1875 24.8989 28.1903 24.7557C28.1889 24.3703 28.0648 23.9954 27.836 23.6853C27.6071 23.3752 27.2855 23.1461 26.9176 23.0311V22.3381C26.9148 22.1949 26.856 22.0585 26.7537 21.9582C26.6515 21.8579 26.514 21.8018 26.3707 21.8018C26.2275 21.8018 26.09 21.8579 25.9878 21.9582C25.8855 22.0585 25.8267 22.1949 25.8239 22.3381V23.0307C25.4096 23.1603 25.0555 23.4342 24.8259 23.8027C24.5964 24.1711 24.5067 24.6097 24.5731 25.0387C24.6395 25.4677 24.8576 25.8587 25.1878 26.1406C25.5179 26.4224 25.9382 26.5765 26.3724 26.5747C26.5158 26.575 26.6559 26.6178 26.775 26.6976C26.8942 26.7775 26.987 26.8909 27.0417 27.0235C27.0964 27.1561 27.1106 27.3019 27.0825 27.4425C27.0543 27.5832 26.9851 27.7123 26.8837 27.8137C26.7822 27.915 26.6529 27.984 26.5122 28.0119C26.3715 28.0398 26.2257 28.0254 26.0932 27.9705C25.9607 27.9156 25.8475 27.8226 25.7678 27.7034C25.6881 27.5841 25.6456 27.4439 25.6455 27.3005C25.6453 27.1554 25.5875 27.0164 25.4848 26.914C25.382 26.8116 25.2429 26.7542 25.0978 26.7544C24.9528 26.7547 24.8138 26.8125 24.7114 26.9152C24.6089 27.0179 24.5515 27.1571 24.5518 27.3021C24.5532 27.6874 24.6773 28.0621 24.906 28.3721C25.1347 28.6821 25.4562 28.9111 25.8239 29.0261V29.7182C25.8239 29.8632 25.8815 30.0023 25.9841 30.1049C26.0866 30.2075 26.2257 30.2651 26.3708 30.2651C26.5158 30.2651 26.6549 30.2075 26.7575 30.1049C26.86 30.0023 26.9176 29.8632 26.9176 29.7182V29.0267C27.3321 28.8971 27.6863 28.623 27.916 28.2544C28.1456 27.8858 28.2353 27.447 28.169 27.0179C28.1026 26.5887 27.8844 26.1975 27.5542 25.9155C27.2239 25.6335 26.8034 25.4793 26.3692 25.481C26.1791 25.4781 25.9979 25.4006 25.8645 25.2653C25.731 25.1299 25.6562 24.9476 25.656 24.7575C25.6557 24.5675 25.7302 24.385 25.8634 24.2494C25.9965 24.1137 26.1776 24.0359 26.3676 24.0325Z" fill="black"/>
<path d="M22.2008 17.9933C22.1894 18.1361 22.2343 18.2776 22.3261 18.3876C22.4179 18.4976 22.5491 18.5672 22.6916 18.5814C22.8342 18.5957 22.9766 18.5535 23.0883 18.4639C23.2001 18.3743 23.2722 18.2444 23.2893 18.1022L23.7288 13.7091C23.7354 13.6308 23.7252 13.5519 23.6989 13.4779C23.6726 13.4038 23.6309 13.3362 23.5763 13.2796C23.5218 13.223 23.4559 13.1786 23.3829 13.1496C23.3098 13.1205 23.2315 13.1073 23.153 13.1109C23.1174 13.1166 23.0814 13.117 23.0463 13.1253L18.7749 14.2442C18.6371 14.2832 18.52 14.3747 18.4489 14.499C18.3778 14.6233 18.3582 14.7705 18.3945 14.909C18.4307 15.0476 18.5198 15.1664 18.6426 15.24C18.7655 15.3136 18.9123 15.3361 19.0515 15.3027L21.6354 14.6258L18.7957 17.9479C18.726 18.0287 18.6272 18.0787 18.5208 18.0871C18.4144 18.0955 18.309 18.0616 18.2275 17.9927L15.8875 15.9922C15.5853 15.735 15.1935 15.6081 14.7979 15.6392C14.4023 15.6703 14.0352 15.857 13.7769 16.1583L9.64355 20.9952C9.55278 21.1059 9.50902 21.2478 9.52167 21.3904C9.53433 21.533 9.60239 21.6649 9.71124 21.7579C9.82009 21.8509 9.96105 21.8974 10.1039 21.8876C10.2467 21.8779 10.38 21.8124 10.4751 21.7055L14.6084 16.8686C14.6782 16.7877 14.777 16.7376 14.8834 16.7292C14.9899 16.7208 15.0954 16.7548 15.1769 16.8237L17.5172 18.8243C17.8192 19.0817 18.211 19.2087 18.6065 19.1776C19.0021 19.1465 19.3692 18.9597 19.6272 18.6582L22.4666 15.336L22.2008 17.9933Z" fill="black"/>
</svg>
