<svg width="57" height="57" viewBox="0 0 57 57" fill="none" xmlns="http://www.w3.org/2000/svg">
<g clip-path="url(#clip0_1_1271)">
<path d="M50.9 3.89984H49.0333V1.09984C49.0333 0.584371 48.6155 0.166504 48.1 0.166504C47.5845 0.166504 47.1667 0.584371 47.1667 1.09984V3.89984H43.4333V1.09984C43.4333 0.584371 43.0155 0.166504 42.5 0.166504C41.9845 0.166504 41.5667 0.584371 41.5667 1.09984V3.89984H37.8333V1.09984C37.8333 0.584371 37.4155 0.166504 36.9 0.166504C36.3845 0.166504 35.9667 0.584371 35.9667 1.09984V3.89984H32.2333V1.09984C32.2333 0.584371 31.8155 0.166504 31.3 0.166504C30.7845 0.166504 30.3667 0.584371 30.3667 1.09984V3.89984H26.6333V1.09984C26.6333 0.584371 26.2155 0.166504 25.7 0.166504C25.1845 0.166504 24.7667 0.584371 24.7667 1.09984V3.89984H21.0333V1.09984C21.0333 0.584371 20.6155 0.166504 20.1 0.166504C19.5845 0.166504 19.1667 0.584371 19.1667 1.09984V3.89984H15.4333V1.09984C15.4333 0.584371 15.0155 0.166504 14.5 0.166504C13.9845 0.166504 13.5667 0.584371 13.5667 1.09984V3.89984H9.83333V1.09984C9.83333 0.584371 9.41547 0.166504 8.9 0.166504C8.38453 0.166504 7.96667 0.584371 7.96667 1.09984V3.89984H6.1C3.00848 3.90292 0.503087 6.40832 0.5 9.49984V50.5665C0.503087 53.658 3.00848 56.1634 6.1 56.1665H50.9C53.9915 56.1634 56.4969 53.658 56.5 50.5665V9.49984C56.4969 6.40832 53.9915 3.90292 50.9 3.89984ZM6.1 5.7665H7.96667V6.69984C7.96667 7.2153 8.38453 7.63317 8.9 7.63317C9.41547 7.63317 9.83333 7.2153 9.83333 6.69984V5.7665H13.5667V6.69984C13.5667 7.2153 13.9845 7.63317 14.5 7.63317C15.0155 7.63317 15.4333 7.2153 15.4333 6.69984V5.7665H19.1667V6.69984C19.1667 7.2153 19.5845 7.63317 20.1 7.63317C20.6155 7.63317 21.0333 7.2153 21.0333 6.69984V5.7665H24.7667V6.69984C24.7667 7.2153 25.1845 7.63317 25.7 7.63317C26.2155 7.63317 26.6333 7.2153 26.6333 6.69984V5.7665H30.3667V6.69984C30.3667 7.2153 30.7845 7.63317 31.3 7.63317C31.8155 7.63317 32.2333 7.2153 32.2333 6.69984V5.7665H35.9667V6.69984C35.9667 7.2153 36.3845 7.63317 36.9 7.63317C37.4155 7.63317 37.8333 7.2153 37.8333 6.69984V5.7665H41.5667V6.69984C41.5667 7.2153 41.9845 7.63317 42.5 7.63317C43.0155 7.63317 43.4333 7.2153 43.4333 6.69984V5.7665H47.1667V6.69984C47.1667 7.2153 47.5845 7.63317 48.1 7.63317C48.6155 7.63317 49.0333 7.2153 49.0333 6.69984V5.7665H50.9C52.9619 5.7665 54.6333 7.43797 54.6333 9.49984V11.3665H2.36667V9.49984C2.36667 7.43797 4.03814 5.7665 6.1 5.7665ZM50.9 54.2998H6.1C4.03814 54.2998 2.36667 52.6284 2.36667 50.5665V13.2332H54.6333V50.5665C54.6333 52.6284 52.9619 54.2998 50.9 54.2998Z" fill="white"/>
<path d="M7.96656 29.1004C7.96656 28.5849 7.54869 28.167 7.03323 28.167C6.51776 28.167 6.09989 28.5849 6.09989 29.1004C6.10269 31.3171 7.6619 33.2272 9.83323 33.6737V33.767C9.83323 34.2825 10.2511 34.7004 10.7666 34.7004C11.282 34.7004 11.6999 34.2825 11.6999 33.767V33.6737C13.8749 33.232 15.4379 31.3197 15.4379 29.1004C15.4379 26.881 13.8749 24.9687 11.6999 24.527V19.0054C12.8146 19.3995 13.5617 20.4514 13.5666 21.6337C13.5666 22.1492 13.9844 22.567 14.4999 22.567C15.0154 22.567 15.4332 22.1492 15.4332 21.6337C15.4304 19.4169 13.8712 17.5069 11.6999 17.0604V16.967C11.6999 16.4516 11.282 16.0337 10.7666 16.0337C10.2511 16.0337 9.83323 16.4516 9.83323 16.967V17.0604C7.65826 17.502 6.09521 19.4143 6.09521 21.6337C6.09521 23.853 7.65826 25.7654 9.83323 26.207V31.7296C8.71818 31.3353 7.97107 30.283 7.96656 29.1004ZM13.5666 29.1004C13.5617 30.2827 12.8146 31.3345 11.6999 31.7286V26.4721C12.8146 26.8662 13.5617 27.918 13.5666 29.1004ZM7.96656 21.6337C7.97146 20.4514 8.7185 19.3995 9.83323 19.0054V24.262C8.7185 23.8679 7.97146 22.816 7.96656 21.6337Z" fill="white"/>
<path d="M6.10012 40.3004H6.13932C6.36425 40.2901 28.6663 39.1244 49.0335 19.1856V21.6337C49.0335 22.1492 49.4513 22.567 49.9668 22.567C50.4823 22.567 50.9001 22.1492 50.9001 21.6337V16.967C50.9001 16.4516 50.4823 16.0337 49.9668 16.0337H45.3001C44.7847 16.0337 44.3668 16.4516 44.3668 16.967C44.3668 17.4825 44.7847 17.9004 45.3001 17.9004H47.6773C27.8617 37.267 6.27932 38.4244 6.06092 38.4337C5.54545 38.4445 5.13636 38.8712 5.14718 39.3866C5.15801 39.9021 5.58465 40.3112 6.10012 40.3004Z" fill="white"/>
<path d="M50.9001 49.6329V26.2996C50.8988 25.5672 50.4695 24.9033 49.8022 24.6017C49.1349 24.3001 48.3528 24.4166 47.8023 24.8996C46.6375 25.9309 45.4401 26.9305 44.1409 27.9544C43.6925 28.3057 43.4314 28.8444 43.4334 29.4141V49.6329H41.5667V33.4545C41.5666 32.7697 41.1914 32.1399 40.5892 31.8137C39.9871 31.4875 39.2546 31.5172 38.6809 31.8912C37.5198 32.6574 36.3223 33.3994 35.0194 34.1638C34.4507 34.4988 34.1012 35.1091 34.1001 35.7692V49.6329H32.2334V38.7456C32.2345 38.1009 31.903 37.5013 31.3563 37.1595C30.8097 36.8177 30.1254 36.7822 29.5463 37.0656C28.3778 37.6312 27.1505 38.1856 25.8989 38.7194C25.2105 39.0116 24.7644 39.688 24.7667 40.4358V49.6329H22.9001V42.5442C22.9003 41.945 22.6129 41.3821 22.1274 41.0309C21.6418 40.6798 21.0172 40.583 20.4482 40.7709C19.2143 41.1825 17.9889 41.5558 16.8082 41.8778C15.9966 42.0995 15.4335 42.8368 15.4334 43.6782V49.6329H13.5667V44.984C13.5667 44.4283 13.319 43.9016 12.8912 43.547C12.4634 43.1924 11.8998 43.0469 11.3538 43.15C9.75315 43.4486 8.51741 43.612 7.76328 43.6969C6.81644 43.8007 6.09964 44.6008 6.10008 45.5533V49.6329C5.58462 49.6329 5.16675 50.0508 5.16675 50.5662C5.16675 51.0817 5.58462 51.4996 6.10008 51.4996H50.9001C51.4155 51.4996 51.8334 51.0817 51.8334 50.5662C51.8334 50.0508 51.4155 49.6329 50.9001 49.6329ZM7.96675 49.6329V45.5542H7.97328C8.75821 45.4665 10.0415 45.2966 11.701 44.9868V49.6329H7.96675ZM17.3001 49.6329V43.681C18.5134 43.3497 19.7743 42.9652 21.0334 42.5442V49.6329H17.3001ZM26.6334 49.6329V40.4405C27.9121 39.8973 29.1665 39.3289 30.3667 38.7465V49.6329H26.6334ZM35.9667 49.6329V35.772C37.2967 34.9917 38.5203 34.2329 39.7001 33.4545V49.6329H35.9667ZM45.3001 49.6329V29.4216C46.6273 28.3753 47.8518 27.3533 49.0334 26.294V49.6329H45.3001Z" fill="white"/>
</g>
<defs>
<clipPath id="clip0_1_1271">
<rect width="56" height="56" fill="white" transform="translate(0.5 0.166504)"/>
</clipPath>
</defs>
</svg>
