<svg width="35" height="35" viewBox="0 0 35 35" fill="none" xmlns="http://www.w3.org/2000/svg">
<path d="M11.5211 27.4077C11.5217 27.4083 11.5226 27.4084 11.5233 27.409C11.524 27.4096 11.5242 27.4104 11.5249 27.4109C11.6625 27.5203 11.8935 27.5053 12.0137 27.359C12.0143 27.3583 12.0144 27.3574 12.0149 27.3567C12.0155 27.356 12.0163 27.3558 12.0169 27.3551L13.4219 25.5898C13.5247 25.4605 13.518 25.223 13.3706 25.1017C10.7623 22.9515 10.4588 19.0869 12.6645 16.5545C12.7839 16.4173 12.7633 16.189 12.6447 16.0737C11.9548 15.404 10.9607 14.4415 11.0125 14.4876C10.8848 14.3737 10.6491 14.3808 10.5285 14.5044C10.5266 14.5064 10.5261 14.5091 10.5242 14.5111C10.5225 14.5129 10.5201 14.5135 10.5185 14.5154C7.14347 18.292 7.55313 24.1554 11.5211 27.4077ZM10.8091 15.2655L11.9298 16.3551C9.7703 19.0992 10.0656 23.0259 12.6717 25.408L11.7024 26.6258C8.37115 23.6496 8.02933 18.6685 10.8091 15.2655Z" fill="black"/>
<path d="M22.9034 17.8191C22.7897 17.8869 22.7064 18.0442 22.7504 18.2088C22.7542 18.223 22.7528 18.2376 22.7585 18.2516C24.3407 22.1339 21.4607 26.4788 17.1924 26.4788C16.309 26.4788 15.465 26.2931 14.6839 25.9265C14.5251 25.8517 14.3125 25.9288 14.2313 26.0698L13.11 28.0333C13.108 28.0368 13.1082 28.0408 13.1064 28.0443C13.1046 28.0476 13.1014 28.0495 13.0998 28.0529C13.0138 28.2278 13.1028 28.4324 13.2403 28.5109C13.2434 28.5127 13.2468 28.5119 13.2499 28.5135C13.2537 28.5156 13.256 28.5193 13.2599 28.5212C14.4909 29.1246 15.8139 29.4306 17.1924 29.4306C23.7171 29.4306 28.0051 22.6721 25.3561 16.8092C25.2857 16.6531 25.07 16.5545 24.8931 16.6342C24.8464 16.6553 23.8087 17.2807 22.9034 17.8191ZM17.1924 28.7306C16.0483 28.7306 14.9496 28.4898 13.9133 28.0385L14.688 26.682C15.4776 27.0056 16.3165 27.1788 17.1924 27.1788C21.7904 27.1788 25.0482 22.6181 23.5074 18.2737L24.8616 17.4656C27.0087 22.8979 22.9696 28.7306 17.1924 28.7306Z" fill="black"/>
<path d="M11.9567 13.653C11.9581 13.6548 11.9601 13.6556 11.9615 13.6575C11.9963 13.7049 13.2634 15.3795 13.3611 15.4832C13.4686 15.5975 13.6358 15.6338 13.7853 15.5475C13.7935 15.5427 13.8029 15.542 13.8109 15.5365C16.4714 13.6995 20.1123 14.3407 22.0215 16.9331C22.0234 16.9356 22.0265 16.9364 22.0284 16.9389C22.0307 16.9418 22.0311 16.9453 22.0334 16.9481C22.1583 17.0999 22.3765 17.1066 22.511 17.0074C22.5593 16.9717 24.3155 15.5249 24.2687 15.5591C24.3966 15.4538 24.4384 15.2269 24.3248 15.0771C22.6842 12.9194 20.2273 11.6469 17.5422 11.5445V10.6317C17.5422 10.4385 17.3854 10.2817 17.1922 10.2817C16.9989 10.2817 16.8422 10.4385 16.8422 10.6317V11.5479C15.1143 11.6145 13.4607 12.166 12.0415 13.1654C12.0397 13.1667 12.0389 13.1687 12.0371 13.1701C12.0351 13.1715 12.0327 13.1717 12.0308 13.1731C11.8816 13.2869 11.8632 13.5201 11.9567 13.653ZM23.5564 15.2392L22.3491 16.2343C20.2274 13.6658 16.5527 13.0129 13.6957 14.7807L12.75 13.5395C16.2138 11.3195 20.8515 11.958 23.5564 15.2392Z" fill="black"/>
<path d="M17.1794 24.3578H17.1924C19.3397 24.3578 21.082 22.6236 21.0886 20.475C21.0957 18.3225 19.3582 16.574 17.2047 16.5669C17.2003 16.5669 17.1965 16.5669 17.1921 16.5669C15.0493 16.5669 13.3025 18.3062 13.2954 20.4499C13.2884 22.6027 15.0263 24.3512 17.1794 24.3578ZM17.1921 17.2669H17.2024C18.9679 17.2726 20.3943 18.7064 20.3886 20.4727C20.383 22.2351 18.954 23.6578 17.1924 23.6578C17.1887 23.6578 17.1851 23.6578 17.1817 23.6578C15.4158 23.6522 13.9898 22.2186 13.9954 20.4522C14.0011 18.6936 15.4342 17.2669 17.1921 17.2669Z" fill="black"/>
<path d="M17.6566 21.6066C17.3263 21.821 16.7235 21.646 16.4713 21.3564C16.3439 21.2111 16.1231 21.1965 15.9773 21.3236C15.8319 21.451 15.8173 21.6723 15.9445 21.8176C16.1925 22.1001 16.5493 22.2755 16.9053 22.3545L16.9045 22.5892C16.9038 22.7824 17.0599 22.9396 17.2533 22.9403H17.2545C17.4472 22.9403 17.6038 22.7845 17.6045 22.5915L17.6052 22.3675C18.5598 22.1651 18.9345 21.0279 18.258 20.4792C17.8099 20.1157 17.1365 20.1238 16.8149 19.9799C16.6446 19.9034 16.6064 19.7209 16.6853 19.5534C16.8796 19.1431 17.6187 19.2572 17.9326 19.5383C18.0766 19.6673 18.2976 19.6545 18.4268 19.5107C18.5556 19.3667 18.5433 19.1455 18.3993 19.0165C18.1854 18.8254 17.8948 18.698 17.5918 18.6345L17.5928 18.3204C17.5935 18.1271 17.4372 17.9699 17.244 17.9692C17.2435 17.9692 17.2433 17.9692 17.2428 17.9692C17.0501 17.9692 16.8935 18.1251 16.8928 18.3181L16.8918 18.6171C15.7914 18.8441 15.6287 20.2156 16.5289 20.6188C16.8854 20.7784 17.5536 20.8092 17.8168 21.0229C18.009 21.1785 17.8426 21.4858 17.6566 21.6066Z" fill="black"/>
<path d="M14.0902 7.48096C13.897 7.48096 13.7402 7.63773 13.7402 7.83096V9.17786C13.7402 9.55521 14.0474 9.86237 14.4247 9.86237H20.3476C20.725 9.86237 21.0321 9.55521 21.0321 9.17786V7.83096C21.0321 7.63773 20.8754 7.48096 20.6821 7.48096C20.4889 7.48096 20.3321 7.63773 20.3321 7.83096L20.3476 9.16237L14.4402 9.17786V7.83096C14.4402 7.63773 14.2835 7.48096 14.0902 7.48096Z" fill="black"/>
<path d="M13.832 7.10003H15.3908C15.584 7.10003 15.7408 6.94326 15.7408 6.75003C15.7408 6.5568 15.584 6.40003 15.3908 6.40003H14.0154V4.93851C14.0154 4.78561 14.1398 4.66143 14.2925 4.66143H20.479C20.6317 4.66143 20.7561 4.78561 20.7561 4.93851V6.40003H19.478C19.2848 6.40003 19.128 6.5568 19.128 6.75003C19.128 6.94326 19.2848 7.10003 19.478 7.10003H20.9396C21.2244 7.10003 21.4561 6.86829 21.4561 6.58346V4.93851C21.4561 4.39984 21.0177 3.96143 20.479 3.96143H14.2925C13.7538 3.96143 13.3154 4.39984 13.3154 4.93851V6.58346C13.3154 6.86829 13.5472 7.10003 13.832 7.10003Z" fill="black"/>
<path d="M15.5521 3.83389C15.7454 3.83389 15.9021 3.67712 15.9021 3.48389V3.23643C15.9021 3.06143 16.0446 2.91924 16.2196 2.91924H18.5529C18.7279 2.91924 18.8703 3.06143 18.8703 3.23643V3.48389C18.8703 3.67712 19.0271 3.83389 19.2203 3.83389C19.4135 3.83389 19.5703 3.67712 19.5703 3.48389V3.23643C19.5703 2.67565 19.1139 2.21924 18.5529 2.21924H16.2196C15.6586 2.21924 15.2021 2.67565 15.2021 3.23643V3.48389C15.2021 3.67712 15.3589 3.83389 15.5521 3.83389Z" fill="black"/>
<path d="M18.427 6.8224C18.427 6.24863 17.9601 5.78174 17.3864 5.78174C16.8126 5.78174 16.3457 6.24863 16.3457 6.8224C16.3457 7.39616 16.8126 7.86305 17.3864 7.86305C17.9601 7.86305 18.427 7.39616 18.427 6.8224ZM17.0457 6.8224C17.0457 6.63464 17.1986 6.48174 17.3864 6.48174C17.5741 6.48174 17.727 6.63464 17.727 6.8224C17.727 7.01016 17.5741 7.16305 17.3864 7.16305C17.1986 7.16305 17.0457 7.01016 17.0457 6.8224Z" fill="black"/>
<path d="M3.74858 32.7445L5.3434 31.9069C5.51453 31.8169 5.58038 31.6054 5.4906 31.4343C5.40037 31.2629 5.18845 31.1966 5.01801 31.2871L3.42318 32.1247C3.25206 32.2147 3.18621 32.4262 3.27598 32.5973C3.3666 32.7696 3.57916 32.8337 3.74858 32.7445Z" fill="black"/>
<path d="M10.8141 32.1247L9.21928 31.2871C9.04815 31.1966 8.83647 31.2629 8.74669 31.4343C8.65691 31.6054 8.72276 31.8169 8.89389 31.9069C10.4858 32.7277 10.4919 32.7846 10.6512 32.7846C11.0158 32.7846 11.1364 32.2942 10.8141 32.1247Z" fill="black"/>
<path d="M5.12661 29.152C5.25968 30.1107 6.02941 31.0889 7.03999 31.0889C8.05125 31.0889 8.82212 30.1109 8.95588 29.152C9.55416 28.9229 9.70182 28.1823 9.35757 27.759C9.47045 27.1523 9.38284 26.312 8.88683 25.917C8.65965 25.7359 8.32492 25.3966 8.3215 25.3932C8.30942 25.3809 8.29621 25.3695 8.28231 25.359C7.32254 24.6385 6.13468 25.3166 5.66825 25.6416C5.62769 25.6698 5.58713 25.689 5.54839 25.6987C4.62295 25.9266 4.6473 27.1238 4.72756 27.754C4.35704 28.2477 4.56969 28.9394 5.12661 29.152ZM5.71587 26.3782C5.83869 26.3479 5.95763 26.2932 6.0686 26.2155C6.33247 26.0319 7.23276 25.4718 7.84321 25.905C8.45709 26.5206 8.51824 26.461 8.59312 26.6626C8.69292 26.9322 8.77632 27.3635 8.60633 27.8883C8.5468 28.0717 8.64698 28.2684 8.8299 28.3285C8.81722 28.4139 8.76228 28.4869 8.67606 28.5072C8.45161 28.561 8.28937 28.7462 8.27228 28.9675C8.22033 29.6249 7.67095 30.3889 7.03999 30.3889C6.41017 30.3889 5.8617 29.6249 5.81021 28.967C5.79243 28.7458 5.63042 28.5612 5.40552 28.507C5.33303 28.4899 5.28791 28.4323 5.26478 28.3647C5.41711 28.3 5.51016 28.1401 5.47319 27.9728C5.37202 27.5169 5.29295 26.4826 5.71587 26.3782Z" fill="black"/>
<path d="M27.8951 24.8159L25.1888 27.7207C25.0261 27.8955 24.9365 28.1229 24.9365 28.3615V32.4022C24.9365 32.5955 25.0933 32.7522 25.2865 32.7522C30.7751 32.7531 31.4573 32.7522 31.4145 32.7522C31.6077 32.7522 31.7645 32.5955 31.7645 32.4022V28.3615C31.7645 28.1227 31.6749 27.8951 31.5122 27.7207L28.8061 24.8162C28.5658 24.5576 28.1469 24.5456 27.8951 24.8159ZM29.0529 32.0522H27.6483V30.0044C27.6483 29.939 27.6996 29.8877 27.765 29.8877H28.9362C29.0016 29.8877 29.0529 29.939 29.0529 30.0044V32.0522ZM31.0002 28.1981C31.0417 28.2426 31.0645 28.3004 31.0645 28.3615V32.0522H29.7529V30.0044C29.7529 29.5541 29.3865 29.1877 28.9362 29.1877H27.765C27.3147 29.1877 26.9483 29.5541 26.9483 30.0044V32.0522H25.6365V28.3615C25.6365 28.3007 25.6595 28.2426 25.701 28.1979L28.3504 25.3541L31.0002 28.1981Z" fill="black"/>
<path d="M26.7138 20.8372H27.9725C28.0279 20.8372 28.0728 20.8821 28.0728 20.9375V23.6443C28.0728 23.8375 28.2295 23.9943 28.4228 23.9943C28.616 23.9943 28.7728 23.8375 28.7728 23.6443V20.9375C28.7728 20.4961 28.4139 20.1372 27.9725 20.1372H26.7138C26.5205 20.1372 26.3638 20.294 26.3638 20.4872C26.3638 20.6804 26.5205 20.8372 26.7138 20.8372Z" fill="black"/>
<path d="M5.77871 23.9943C5.97194 23.9943 6.12871 23.8375 6.12871 23.6443V20.9375C6.12871 20.8821 6.1736 20.8372 6.22897 20.8372H7.4877C7.68092 20.8372 7.8377 20.6804 7.8377 20.4872C7.8377 20.294 7.68092 20.1372 7.4877 20.1372H6.22897C5.7876 20.1372 5.42871 20.4961 5.42871 20.9375V23.6443C5.42871 23.8375 5.58548 23.9943 5.77871 23.9943Z" fill="black"/>
</svg>
