<svg width="35" height="35" viewBox="0 0 35 35" fill="none" xmlns="http://www.w3.org/2000/svg">
<path d="M28.9085 22.8583C28.2478 23.1491 27.6811 23.4211 27.1331 23.6842C25.422 24.5059 24.1461 25.1177 21.9474 25.2959C22.0098 25.0743 22.0291 24.8545 22.0016 24.6499C21.9214 24.0517 21.4217 23.4253 20.2645 23.4534C19.0194 23.4854 17.8704 23.177 16.6516 22.8515C15.356 22.5055 14.0156 22.1482 12.4916 22.1881C10.5447 22.2395 9.05171 22.6394 7.79294 23.4465C7.22002 23.8135 6.8368 24.2611 6.46615 24.6938C6.25725 24.9378 6.04253 25.1881 5.78755 25.4336C5.58924 25.3176 5.36311 25.2544 5.12645 25.2544C4.77419 25.2544 4.44395 25.3914 4.19744 25.6393L3.04449 26.7921C2.79724 27.0393 2.66113 27.3692 2.66113 27.7211C2.66113 28.0731 2.79724 28.4028 3.04442 28.6501L8.73842 34.3459C8.9949 34.601 9.33123 34.7285 9.66729 34.7285C10.0033 34.7285 10.34 34.6007 10.5955 34.3452L11.7504 33.1902C12.1673 32.7733 12.2448 32.1437 11.983 31.6475C12.4974 31.1742 13.2072 30.788 14.703 30.9027C15.1984 30.9411 15.674 30.9907 16.134 31.0387C18.1909 31.2534 19.9672 31.4387 22.1091 30.5179C24.3624 29.5506 30.9223 26.2715 31.4903 23.9701C31.5924 23.556 31.5119 23.1713 31.257 22.857C30.7018 22.1741 29.6506 22.5308 28.9086 22.8583H28.9085ZM11.1693 32.6094L10.0143 33.7643C9.82308 33.9558 9.51054 33.9553 9.31845 33.7643L3.62534 28.0692C3.53333 27.9771 3.48261 27.8536 3.48261 27.7212C3.48261 27.5888 3.53326 27.4653 3.62534 27.3732L4.77911 26.2194C4.87112 26.1269 4.99437 26.076 5.12638 26.076C5.25838 26.076 5.38156 26.1269 5.47439 26.2202L11.1694 31.9132C11.2614 32.0053 11.3121 32.1289 11.3121 32.2613C11.3121 32.3937 11.2614 32.5172 11.1694 32.6093L11.1693 32.6094ZM30.6924 23.7733C30.3074 25.3331 25.1811 28.3051 21.7847 29.7631C19.8392 30.5993 18.1616 30.4242 16.2191 30.2217C15.7538 30.1731 15.2727 30.1229 14.7661 30.0835C13.0362 29.9508 12.1137 30.4232 11.4453 31.0275L6.40012 25.984C6.66139 25.7283 6.8787 25.4753 7.09021 25.2284C7.45244 24.8053 7.76525 24.44 8.23625 24.1382C9.36356 23.4155 10.7226 23.0568 12.5132 23.0095C13.9181 22.9715 15.2005 23.3145 16.4396 23.6454C17.6609 23.9714 18.9247 24.3069 20.2853 24.2748C20.5969 24.2652 21.1281 24.3188 21.1872 24.7591C21.2498 25.2255 20.7541 26.044 19.6939 26.3041C18.6154 26.5695 16.6728 26.2913 15.2261 25.8977C15.0076 25.8382 14.7814 25.9673 14.7218 26.1863C14.6623 26.4052 14.7915 26.631 15.0105 26.6906C16.047 26.9725 17.4503 27.2293 18.6417 27.2292C19.1002 27.2292 19.5274 27.1912 19.89 27.102C20.5822 26.9322 21.1196 26.5743 21.4808 26.149C24.1652 26.02 25.6352 25.315 27.4887 24.4251C28.0307 24.1648 28.5911 23.8958 29.2398 23.6103C30.3122 23.1368 30.5668 23.3108 30.619 23.3751C30.7113 23.4889 30.7333 23.608 30.6924 23.7734L30.6924 23.7733ZM17.839 22.1589C20.4793 22.1589 22.9857 21.011 24.7148 19.0493C25.1864 20.6671 26.681 21.8528 28.4481 21.8528C30.5937 21.8528 32.3392 20.1073 32.3392 17.9618C32.3392 15.8163 30.5937 14.0727 28.4481 14.0727C27.8941 14.0727 27.3672 14.19 26.8897 14.3997C26.9164 14.2256 26.9399 14.0513 26.9563 13.8767C26.9671 13.7615 26.9288 13.6472 26.851 13.5617C26.7731 13.4762 26.6629 13.4275 26.5473 13.4275H24.222C24.0155 13.4275 23.8412 13.5807 23.8146 13.7853C23.426 16.7739 20.8572 19.0275 17.839 19.0275C14.5161 19.0275 11.8127 16.3241 11.8127 13.0012C11.8127 12.492 11.8782 11.996 11.9992 11.5207C12.0035 11.509 12.0086 11.4979 12.0119 11.4857C12.0166 11.4682 12.0197 11.4506 12.022 11.433C12.6445 9.13321 14.6006 7.34458 17.053 7.02562C17.2577 6.99896 17.4108 6.82471 17.4108 6.61826V4.29295C17.4108 4.17722 17.362 4.06682 17.2764 3.98903C17.1907 3.91123 17.0761 3.87295 16.9611 3.88403C14.7038 4.09895 12.6147 5.14232 11.0788 6.82204C9.53275 8.51291 8.68127 10.7074 8.68127 13.0012C8.68127 18.0508 12.7895 22.159 17.8391 22.159L17.839 22.1589ZM31.5175 17.9618C31.5175 19.6543 30.1406 21.0312 28.4481 21.0312C26.7557 21.0312 25.3807 19.6543 25.3807 17.9618C25.3807 16.2694 26.7567 14.8944 28.4481 14.8944C30.1396 14.8944 31.5175 16.2704 31.5175 17.9618ZM24.5731 14.2491H26.0834C26.0456 14.5005 25.9953 14.7506 25.9345 14.9976C25.1006 15.7058 24.5682 16.7582 24.5598 17.9334C23.0726 19.9563 20.7462 21.2024 18.2498 21.3262V19.8353C21.379 19.6474 24.0048 17.3318 24.5731 14.249V14.2491ZM16.5891 4.7567V6.2671C14.0909 6.72784 12.0964 8.54074 11.3303 10.8776L9.88337 10.4895C10.815 7.50208 13.3726 5.2359 16.5891 4.7567ZM9.67727 11.2849L11.1228 11.6726C11.0373 12.1037 10.991 12.5477 10.991 13.0012C10.991 16.6392 13.8427 19.6233 17.4282 19.8365V21.3272C13.0217 21.1122 9.50281 17.46 9.50281 13.0012C9.50281 12.4131 9.56283 11.839 9.67727 11.2849ZM18.6252 7.02569C21.3299 7.37623 23.4639 9.51014 23.8145 12.2149C23.8411 12.4197 24.0154 12.5729 24.2219 12.5729H30.1359C30.3531 12.5729 30.5328 12.4038 30.5459 12.187C30.7408 8.98008 29.5496 5.83664 27.2774 3.56246C25.0034 1.29047 21.8592 0.0990367 18.6531 0.294134C18.4362 0.307259 18.2671 0.486908 18.2671 0.704154V6.6182C18.2671 6.82471 18.4204 6.99903 18.6251 7.02562L18.6252 7.02569ZM19.0888 1.09804C21.9268 1.03112 24.6803 2.1291 26.6964 4.14345C28.711 6.15985 29.8088 8.91398 29.742 11.7513H24.5733C24.0617 8.9662 21.8739 6.7785 19.0889 6.2669V1.09797L19.0888 1.09804ZM12.3919 13.0205C12.3919 16.0134 14.8267 18.4482 17.8195 18.4482C20.8123 18.4482 23.2452 16.0134 23.2452 13.0205C23.2452 10.0277 20.8113 7.59485 17.8195 7.59485C14.8277 7.59485 12.3919 10.0288 12.3919 13.0205ZM17.8195 8.41646C20.3582 8.41646 22.4236 10.4818 22.4236 13.0205C22.4236 15.5593 20.3582 17.6266 17.8195 17.6266C15.2808 17.6266 13.2135 15.5603 13.2135 13.0205C13.2135 10.4808 15.2797 8.41646 17.8195 8.41646ZM15.8313 14.2084C15.8313 13.9815 16.0152 13.7976 16.2422 13.7976C16.4691 13.7976 16.653 13.9815 16.653 14.2084C16.653 14.7331 17.1763 15.1598 17.8195 15.1598C18.4627 15.1598 18.9841 14.7331 18.9841 14.2084C18.9841 13.5812 18.6542 13.4491 17.7811 13.256C17.0449 13.0931 16.0367 12.8701 16.0367 11.6564C16.0367 10.9026 16.623 10.2691 17.4086 10.1025V9.6256C17.4086 9.39871 17.5925 9.21476 17.8194 9.21476C18.0464 9.21476 18.2303 9.39865 18.2303 9.6256V10.1025C19.0158 10.2691 19.6022 10.9026 19.6022 11.6564C19.6022 11.8832 19.4183 12.0672 19.1913 12.0672C18.9644 12.0672 18.7805 11.8833 18.7805 11.6564C18.7805 11.229 18.3493 10.8813 17.8193 10.8813C17.2894 10.8813 16.8582 11.229 16.8582 11.6564C16.8582 12.1649 17.1434 12.2734 17.9585 12.4538C18.694 12.6165 19.8056 12.8624 19.8056 14.2084C19.8056 15.0604 19.129 15.7739 18.2302 15.9433V16.4155C18.2302 16.6423 18.0463 16.8263 17.8193 16.8263C17.5924 16.8263 17.4085 16.6424 17.4085 16.4155V15.9434C16.5087 15.7741 15.8312 15.0605 15.8312 14.2084H15.8313ZM29.43 18.1238C29.181 18.1906 28.9734 18.3502 28.8467 18.5712C28.7173 18.7939 28.6829 19.0539 28.7496 19.3031C28.8164 19.5522 28.9759 19.7598 29.197 19.8865C29.3484 19.9745 29.5139 20.0162 29.6774 20.0162C30.0096 20.0162 30.3336 19.8439 30.5124 19.5361C30.6418 19.3134 30.6762 19.0535 30.6094 18.8042C30.5427 18.5554 30.3833 18.348 30.1607 18.2201C29.9382 18.0912 29.6788 18.057 29.4301 18.1238H29.43ZM29.7513 18.9324C29.7943 18.9571 29.8101 18.996 29.8157 19.0169C29.8214 19.0381 29.8272 19.08 29.8019 19.1234C29.7626 19.1913 29.6761 19.2147 29.6077 19.175C29.5647 19.1503 29.5488 19.1113 29.5432 19.0904C29.5375 19.0693 29.5318 19.0274 29.5582 18.9819C29.5829 18.9389 29.6218 18.9231 29.6428 18.9175C29.6519 18.915 29.6647 18.9126 29.68 18.9126C29.7001 18.9126 29.7245 18.9169 29.7493 18.9313C29.75 18.9317 29.7507 18.9321 29.7513 18.9325V18.9324ZM27.1447 19.3996L29.0418 16.1132C29.1551 15.9167 29.4065 15.8496 29.6029 15.9628C29.7994 16.0763 29.8667 16.3275 29.7533 16.5239L27.8562 19.8103C27.7802 19.9422 27.642 20.0159 27.5001 20.0159C27.4303 20.0159 27.3598 19.9981 27.2951 19.9607C27.0986 19.8473 27.0313 19.5961 27.1447 19.3996ZM26.2887 17.1204C26.3551 17.3681 26.514 17.5757 26.7361 17.7047C26.8846 17.7909 27.0496 17.8349 27.2169 17.8349C27.3007 17.8349 27.3849 17.8239 27.4681 17.8017C27.7172 17.7348 27.9248 17.5752 28.0521 17.3531C28.3171 16.8936 28.1595 16.3033 27.701 16.037C27.7004 16.0365 27.6997 16.0361 27.6991 16.0358C27.475 15.9073 27.2142 15.8741 26.9651 15.942C26.7172 16.0096 26.5108 16.1696 26.3858 16.3892C26.2564 16.6118 26.2219 16.8715 26.2887 17.1203V17.1204ZM27.098 16.7989C27.1211 16.7583 27.156 16.7416 27.1813 16.7348C27.1906 16.7322 27.2039 16.7296 27.2197 16.7296C27.24 16.7296 27.2643 16.7339 27.2894 16.748C27.3566 16.7878 27.3795 16.8748 27.34 16.9436C27.3153 16.9866 27.2763 17.0025 27.2554 17.0081C27.2343 17.0138 27.1925 17.0196 27.1488 16.9943C27.1043 16.9684 27.088 16.9288 27.0822 16.9076C27.0754 16.8821 27.0723 16.8432 27.098 16.7989Z" fill="black"/>
</svg>
