<svg width="10" height="10" viewBox="0 0 10 10" fill="none" xmlns="http://www.w3.org/2000/svg">
<path d="M9.99991 4.96907C9.98822 4.01036 9.70446 3.07498 9.18207 2.27308C8.65968 1.47119 7.92047 0.83618 7.05145 0.442843C6.18236 0.0495058 5.21971 -0.085776 4.27681 0.0529206C3.33392 0.191623 2.45005 0.598525 1.72929 1.22573C1.00854 1.85292 0.480915 2.67428 0.208563 3.59308C-0.0637819 4.51188 -0.0695197 5.48983 0.192038 6.41181C0.453595 7.33379 0.971548 8.16132 1.6849 8.79704C2.39825 9.43276 3.27729 9.85014 4.21849 10V6.43433H2.96846V4.96907H4.21849V3.85597C4.18955 3.59717 4.21743 3.33511 4.30018 3.08832C4.38293 2.84153 4.5185 2.61602 4.69732 2.4277C4.87614 2.23938 5.09383 2.09285 5.33509 1.99845C5.57634 1.90405 5.83529 1.86407 6.09355 1.88135C6.46843 1.88651 6.84244 1.92015 7.21233 1.98197V3.2397H6.58731C6.47956 3.22602 6.37005 3.23689 6.26705 3.2715C6.16399 3.3061 6.06998 3.36356 5.99198 3.43963C5.91398 3.5157 5.85398 3.60843 5.81641 3.71096C5.77879 3.81352 5.7646 3.92326 5.77479 4.03206V4.98164H7.16233L6.93732 6.4469H5.78104V9.96856C6.96226 9.78059 8.03741 9.17285 8.81144 8.25559C9.58546 7.33832 10.0071 6.17234 9.99991 4.96907Z" fill="black"/>
</svg>
