<svg width="36" height="35" viewBox="0 0 36 35" fill="none" xmlns="http://www.w3.org/2000/svg">
<path d="M26.3781 27.3039H5.3617C5.21688 27.2975 5.08047 27.2341 4.98215 27.1276C4.88383 27.0211 4.83155 26.88 4.8367 26.7352V15.5734H15.4844V16.6672C15.4844 17.1023 15.6572 17.5196 15.9649 17.8273C16.2726 18.135 16.6899 18.3078 17.125 18.3078C17.5601 18.3078 17.9774 18.135 18.2851 17.8273C18.5928 17.5196 18.7656 17.1023 18.7656 16.6672V15.5733H25.9953C26.1385 15.5704 26.2748 15.5115 26.375 15.4093C26.4752 15.307 26.5314 15.1696 26.5314 15.0264C26.5314 14.8832 26.4752 14.7458 26.375 14.6435C26.2748 14.5413 26.1385 14.4824 25.9953 14.4795H18.7656V13.3859C18.7652 13.241 18.7074 13.1022 18.605 12.9997C18.5025 12.8973 18.3637 12.8395 18.2188 12.8391H16.0313C15.8863 12.8395 15.7475 12.8972 15.645 12.9997C15.5425 13.1022 15.4848 13.241 15.4844 13.3859V14.4797H3.78125V8.87422C3.78391 8.72421 3.84469 8.58108 3.95078 8.47499C4.05687 8.3689 4.19999 8.30813 4.35 8.30547H29.9C30.05 8.30813 30.1931 8.3689 30.2992 8.47499C30.4053 8.58108 30.4661 8.72421 30.4688 8.87422V10.6461C30.4711 10.7896 30.5297 10.9265 30.632 11.0271C30.7343 11.1278 30.8721 11.1842 31.0156 11.1842C31.1592 11.1842 31.297 11.1278 31.3993 11.0271C31.5016 10.9264 31.5602 10.7896 31.5625 10.6461V8.87422C31.5626 8.65587 31.5197 8.43964 31.4362 8.23789C31.3526 8.03614 31.2302 7.85283 31.0758 7.69843C30.9214 7.54404 30.7381 7.42158 30.5363 7.33807C30.3346 7.25455 30.1184 7.21162 29.9 7.21172H24.0867V4.96953C24.0857 4.23305 23.7927 3.52702 23.2719 3.00625C22.7511 2.48547 22.0451 2.19245 21.3086 2.19141H12.9414C12.2041 2.19131 11.4968 2.48379 10.9749 3.00466C10.453 3.52552 10.1592 4.23219 10.1578 4.96953V7.21172H4.35C4.13165 7.21162 3.91542 7.25455 3.71367 7.33807C3.51192 7.42158 3.32861 7.54404 3.17421 7.69843C3.01982 7.85283 2.89736 8.03614 2.81385 8.23789C2.73034 8.43964 2.6874 8.65587 2.6875 8.87422V15.0266C2.68793 15.1715 2.74569 15.3103 2.84815 15.4128C2.95062 15.5152 3.08947 15.573 3.23438 15.5734H3.74297V26.7352C3.7376 27.1702 3.90502 27.5895 4.20851 27.9012C4.51199 28.2129 4.92673 28.3914 5.36172 28.3977H26.3781C26.5213 28.3948 26.6576 28.336 26.7579 28.2337C26.8581 28.1315 26.9143 27.994 26.9143 27.8508C26.9143 27.7076 26.8581 27.5701 26.7579 27.4678C26.6576 27.3656 26.5213 27.3067 26.3781 27.3039ZM16.5781 13.9328H17.6718V16.6672C17.6697 16.8108 17.6112 16.9479 17.5088 17.0487C17.4065 17.1495 17.2686 17.206 17.125 17.206C16.9813 17.206 16.8434 17.1495 16.7411 17.0486C16.6388 16.9478 16.5802 16.8108 16.5781 16.6672V13.9328ZM21.0133 7.21172H13.2367V5.27032H21.0133V7.21172ZM11.2515 4.96954C11.253 4.52231 11.4316 4.09388 11.7484 3.77815C12.0651 3.46243 12.4941 3.28514 12.9414 3.28516H21.3086C21.7552 3.28536 22.1835 3.46288 22.4994 3.77872C22.8152 4.09456 22.9927 4.52287 22.9929 4.96954V7.21172H22.107V4.96954C22.1056 4.75871 22.0209 4.55699 21.8713 4.40843C21.7217 4.25986 21.5194 4.17651 21.3086 4.17657H12.9414C12.8368 4.17608 12.7332 4.19621 12.6365 4.23582C12.5398 4.27543 12.4518 4.33374 12.3776 4.4074C12.3035 4.48106 12.2446 4.56863 12.2043 4.66509C12.164 4.76155 12.1432 4.86501 12.1429 4.96954V7.21172H11.2515V4.96954Z" fill="black"/>
<path d="M33.2242 20.6209C33.1745 20.5445 33.1065 20.4818 33.0264 20.4383C32.9463 20.3949 32.8566 20.3721 32.7655 20.372H28.3264L30.1315 12.7067C30.1596 12.5764 30.1392 12.4403 30.0742 12.3239C30.0092 12.2075 29.904 12.1188 29.7783 12.0743C29.6526 12.0299 29.515 12.0328 29.3913 12.0824C29.2676 12.1321 29.1662 12.2251 29.1061 12.3441L23.7362 23.4962C23.6961 23.5796 23.6778 23.6718 23.683 23.7642C23.6882 23.8566 23.7168 23.9461 23.7661 24.0244C23.8153 24.1027 23.8836 24.1673 23.9646 24.212C24.0456 24.2568 24.1366 24.2802 24.2291 24.2802H28.7825L27.1744 32.1592C27.15 32.2903 27.1743 32.4258 27.2426 32.5403C27.3109 32.6547 27.4187 32.7404 27.5456 32.7811C27.6726 32.8219 27.81 32.8149 27.9322 32.7616C28.0544 32.7082 28.153 32.6122 28.2094 32.4913L33.2648 21.1416C33.3021 21.0583 33.3179 20.967 33.3108 20.8761C33.3037 20.7851 33.274 20.6974 33.2242 20.6209ZM29.2466 27.475L29.9878 23.8429C30.0034 23.7635 30.0014 23.6816 29.9817 23.6031C29.9621 23.5247 29.9254 23.4515 29.8742 23.3888C29.8231 23.3261 29.7587 23.2755 29.6858 23.2405C29.6128 23.2056 29.5331 23.1871 29.4522 23.1865H25.0996L27.9189 17.3311L27.1034 20.7934C27.0852 20.8736 27.0852 20.9569 27.1034 21.0371C27.1216 21.1174 27.1576 21.1925 27.2087 21.257C27.2598 21.3215 27.3247 21.3737 27.3986 21.4099C27.4725 21.446 27.5536 21.4651 27.6358 21.4658H31.9233L29.2466 27.475Z" fill="black"/>
</svg>
