<svg width="57" height="57" viewBox="0 0 57 57" fill="none" xmlns="http://www.w3.org/2000/svg">
<path d="M48.7044 18.2522H40.1667C39.7026 18.2522 39.2575 18.0679 38.9293 17.7397C38.6011 17.4115 38.4167 16.9664 38.4167 16.5022C38.4167 16.0381 38.6011 15.593 38.9293 15.2648C39.2575 14.9366 39.7026 14.7522 40.1667 14.7522H47.0641L47.5611 7.05223C47.5987 6.59068 47.8147 6.16194 48.1632 5.857C48.5117 5.55206 48.9653 5.39491 49.4277 5.4189C49.6578 5.43341 49.8828 5.49331 50.0896 5.59515C50.2965 5.69698 50.4811 5.83874 50.633 6.01225C50.7848 6.18576 50.9008 6.38759 50.9742 6.60613C51.0477 6.82466 51.0772 7.05557 51.0611 7.28556L50.4591 16.6189C50.4299 17.0635 50.2321 17.4802 49.9059 17.7838C49.5798 18.0874 49.15 18.255 48.7044 18.2522Z" fill="white"/>
<path d="M28.5 53.2492C24.0972 53.2483 19.7722 52.0885 15.9596 49.8864C12.147 47.6843 8.98128 44.5174 6.78046 40.7041C4.57964 36.8909 3.42131 32.5654 3.42188 28.1626C3.42245 23.7598 4.5819 19.4347 6.7837 15.6219C8.98551 11.8092 12.1521 8.64319 15.9652 6.44208C19.7784 4.24096 24.1037 3.08229 28.5065 3.08252C32.9093 3.08275 37.2345 4.24186 41.0474 6.44337C44.8603 8.64488 48.0266 11.8112 50.228 15.6242C50.4601 16.0264 50.5228 16.5044 50.4025 16.9529C50.2822 17.4014 49.9886 17.7838 49.5863 18.0159C49.1841 18.2479 48.7061 18.3107 48.2576 18.1904C47.8091 18.07 47.4267 17.7764 47.1947 17.3742C44.5772 12.8368 40.3995 9.40581 35.4398 7.7204C30.4802 6.03498 25.077 6.21013 20.2369 8.2132C15.3968 10.2163 11.45 13.9107 9.13192 18.608C6.81381 23.3053 6.28247 28.6852 7.63693 33.7453C8.99138 38.8053 12.1392 43.2004 16.494 46.1116C20.8487 49.0228 26.1133 50.2515 31.3068 49.5688C36.5003 48.8861 41.2685 46.3386 44.723 42.401C48.1774 38.4633 50.0826 33.404 50.0833 28.1659C50.0833 27.7017 50.2677 27.2566 50.5959 26.9284C50.9241 26.6002 51.3692 26.4159 51.8333 26.4159C52.2975 26.4159 52.7426 26.6002 53.0708 26.9284C53.399 27.2566 53.5833 27.7017 53.5833 28.1659C53.5759 34.8161 50.9308 41.1918 46.2284 45.8943C41.526 50.5967 35.1502 53.2418 28.5 53.2492Z" fill="white"/>
<path d="M37.8334 36.9152C37.4555 36.915 37.0879 36.7922 36.7858 36.5652L27.4524 29.5652C27.2351 29.4022 27.0587 29.1908 26.9372 28.9478C26.8157 28.7048 26.7524 28.4369 26.7524 28.1652V16.4985C26.7524 16.0344 26.9368 15.5893 27.265 15.2611C27.5932 14.9329 28.0383 14.7485 28.5024 14.7485C28.9666 14.7485 29.4117 14.9329 29.7399 15.2611C30.0681 15.5893 30.2524 16.0344 30.2524 16.4985V27.2902L38.8858 33.7652C39.1798 33.9857 39.3969 34.2932 39.5063 34.644C39.6158 34.9948 39.612 35.3712 39.4956 35.7197C39.3792 36.0683 39.1559 36.3713 38.8576 36.5859C38.5593 36.8005 38.2009 36.9157 37.8334 36.9152Z" fill="white"/>
</svg>
