<svg width="57" height="57" viewBox="0 0 57 57" fill="none" xmlns="http://www.w3.org/2000/svg">
<path d="M54.1668 21.8659H49.2448C48.8346 20.511 48.292 19.1998 47.6248 17.9512L51.1043 14.4718C51.323 14.253 51.4459 13.9562 51.4459 13.6468C51.4459 13.3374 51.323 13.0406 51.1043 12.8219L43.8446 5.56169C43.6258 5.3429 43.329 5.21999 43.0196 5.21999C42.7102 5.21999 42.4134 5.3429 42.1947 5.56169L38.7152 9.04115C37.4665 8.37392 36.1551 7.83129 34.8001 7.42112V2.49919C34.8001 2.18977 34.6772 1.89302 34.4584 1.67423C34.2396 1.45544 33.9428 1.33252 33.6334 1.33252H23.3668C23.0573 1.33252 22.7606 1.45544 22.5418 1.67423C22.323 1.89302 22.2001 2.18977 22.2001 2.49919V7.42112C20.8452 7.83132 19.534 8.37395 18.2854 9.04115L14.8055 5.56169C14.5867 5.3429 14.29 5.21999 13.9806 5.21999C13.6712 5.21999 13.3744 5.3429 13.1556 5.56169L5.89592 12.8214C5.67713 13.0402 5.55421 13.3369 5.55421 13.6463C5.55421 13.9558 5.67713 14.2525 5.89592 14.4713L9.37538 17.9508C8.70815 19.1994 8.16552 20.5108 7.75535 21.8659H2.83341C2.524 21.8659 2.22725 21.9888 2.00846 22.2076C1.78966 22.4264 1.66675 22.7231 1.66675 23.0325V33.2992C1.66675 33.6086 1.78966 33.9054 2.00846 34.1241C2.22725 34.3429 2.524 34.4659 2.83341 34.4659H7.75535C8.16555 35.8207 8.70818 37.132 9.37538 38.3805L5.89592 41.8604C5.67713 42.0792 5.55421 42.376 5.55421 42.6854C5.55421 42.9948 5.67713 43.2915 5.89592 43.5103L13.1556 50.77C13.3744 50.9888 13.6712 51.1117 13.9806 51.1117C14.29 51.1117 14.5867 50.9888 14.8055 50.77L18.285 47.2906C19.5337 47.9578 20.845 48.5004 22.2001 48.9106V53.8325C22.2001 54.1419 22.323 54.4387 22.5418 54.6575C22.7606 54.8763 23.0573 54.9992 23.3668 54.9992H33.6334C33.9428 54.9992 34.2396 54.8763 34.4584 54.6575C34.6772 54.4387 34.8001 54.1419 34.8001 53.8325V48.9106C36.155 48.5004 37.4662 47.9578 38.7147 47.2906L42.1942 50.77C42.413 50.9888 42.7097 51.1117 43.0191 51.1117C43.3285 51.1117 43.6253 50.9888 43.8441 50.77L51.1038 43.5103C51.3226 43.2915 51.4455 42.9948 51.4455 42.6854C51.4455 42.376 51.3226 42.0792 51.1038 41.8604L47.6243 38.381C48.2917 37.1323 48.8345 35.8209 49.2448 34.4659H54.1668C54.4762 34.4659 54.7729 34.3429 54.9917 34.1241C55.2105 33.9054 55.3334 33.6086 55.3334 33.2992V23.0325C55.3334 22.7231 55.2105 22.4264 54.9917 22.2076C54.7729 21.9888 54.4762 21.8659 54.1668 21.8659ZM53.0001 32.1325H48.3607C48.1021 32.1329 47.8509 32.219 47.6464 32.3773C47.4419 32.5357 47.2956 32.7573 47.2304 33.0075C46.7809 34.7552 46.0867 36.4306 45.1685 37.9841C45.0369 38.2072 44.9832 38.4677 45.0157 38.7246C45.0483 38.9816 45.1653 39.2204 45.3484 39.4037L48.6298 42.685L43.0197 48.2955L39.7384 45.0142C39.5557 44.8302 39.3167 44.7126 39.0595 44.68C38.8023 44.6474 38.5416 44.7017 38.3188 44.8343C36.7653 45.7525 35.0899 46.4467 33.3422 46.8962C33.092 46.9614 32.8703 47.1077 32.712 47.3122C32.5537 47.5167 32.4676 47.7679 32.4672 48.0265V52.6659H24.5334V48.0265C24.533 47.7679 24.4469 47.5167 24.2886 47.3122C24.1303 47.1077 23.9087 46.9614 23.6584 46.8962C21.9108 46.4467 20.2354 45.7525 18.6819 44.8343C18.459 44.7018 18.1983 44.6476 17.9412 44.6802C17.684 44.7128 17.4451 44.8303 17.2623 45.0142L13.9804 48.2955L8.37041 42.6855L11.6518 39.4041C11.8349 39.2209 11.9519 38.982 11.9844 38.7251C12.017 38.4681 11.9633 38.2076 11.8317 37.9845C10.9135 36.431 10.2193 34.7556 9.76972 33.008C9.70452 32.7577 9.55824 32.5361 9.35375 32.3778C9.14925 32.2195 8.89806 32.1334 8.63945 32.133H4.00008V24.1992H8.63945C8.89806 24.1988 9.14925 24.1127 9.35375 23.9544C9.55824 23.7961 9.70452 23.5744 9.76972 23.3242C10.2192 21.5764 10.9134 19.9008 11.8317 18.3472C11.9633 18.1241 12.017 17.8636 11.9844 17.6066C11.9519 17.3497 11.8349 17.1108 11.6518 16.9276L8.37041 13.6462L13.9804 8.03619L17.2618 11.3176C17.4449 11.5009 17.6838 11.6181 17.9408 11.6507C18.1978 11.6833 18.4584 11.6294 18.6814 11.4975C20.2349 10.5792 21.9103 9.88505 23.6579 9.43549C23.9082 9.37029 24.1298 9.22401 24.2881 9.01952C24.4464 8.81502 24.5325 8.56383 24.5329 8.30522V3.66585H32.4663V8.30522C32.4667 8.56383 32.5528 8.81502 32.7111 9.01952C32.8694 9.22401 33.091 9.37029 33.3413 9.43549C35.0889 9.88505 36.7643 10.5792 38.3178 11.4975C38.5408 11.6294 38.8014 11.6833 39.0584 11.6507C39.3155 11.6181 39.5544 11.5009 39.7374 11.3176L43.0197 8.03619L48.6298 13.6462L45.3484 16.9276C45.1653 17.1108 45.0483 17.3497 45.0157 17.6066C44.9832 17.8636 45.0369 18.1241 45.1685 18.3472C46.0867 19.9007 46.7809 21.5761 47.2304 23.3237C47.2956 23.574 47.4419 23.7956 47.6464 23.9539C47.8509 24.1122 48.1021 24.1983 48.3607 24.1987H53.0001V32.1325Z" fill="white"/>
<path d="M39.2302 17.4355C39.2054 17.4105 39.1723 17.4014 39.1457 17.3792C36.2837 14.5543 32.4186 12.9791 28.3973 12.9987C24.376 13.0184 20.5264 14.6313 17.6922 17.4841C14.8579 20.3369 13.2701 24.1968 13.2766 28.2182C13.2832 32.2395 14.8836 36.0943 17.7271 38.9379C20.5706 41.7814 24.4254 43.3818 28.4468 43.3883C32.4681 43.3949 36.3281 41.807 39.1809 38.9728C42.0337 36.1385 43.6466 32.289 43.6662 28.2677C43.6859 24.2464 42.1106 20.3812 39.2857 17.5192C39.2642 17.4933 39.2551 17.4602 39.2302 17.4355ZM29.6668 15.3912C32.2554 15.6253 34.7111 16.6435 36.7057 18.31L29.6668 25.3492V15.3912ZM28.5001 40.9989C25.198 40.9994 22.0229 39.7268 19.6353 37.4458C17.2476 35.1649 15.8313 32.0512 15.6811 28.7525C15.5308 25.4539 16.6581 22.2243 18.8284 19.7357C20.9987 17.247 24.045 15.691 27.3334 15.3912V28.1655C27.3346 28.4746 27.4579 28.7707 27.6764 28.9892C27.895 29.2078 28.191 29.331 28.5001 29.3322H41.2744C40.9801 32.5183 39.5077 35.48 37.1451 37.6377C34.7825 39.7955 31.6997 40.994 28.5001 40.9989ZM31.3164 26.9989L38.3556 19.9599C40.0221 21.9546 41.0404 24.4102 41.2744 26.9989H31.3164Z" fill="white"/>
</svg>
