<svg width="35" height="35" viewBox="0 0 35 35" fill="none" xmlns="http://www.w3.org/2000/svg">
<g clip-path="url(#clip0_1_172)">
<path fill-rule="evenodd" clip-rule="evenodd" d="M14.9185 15.6815C14.6687 15.4317 14.3235 15.2772 13.9422 15.2772C13.5608 15.2772 13.2156 15.4317 12.9658 15.6815C12.7161 15.9313 12.5615 16.2765 12.5615 16.6578C12.5615 17.0392 12.7161 17.3844 12.9658 17.6342C13.2156 17.884 13.5608 18.0385 13.9422 18.0385C14.3235 18.0385 14.6687 17.8839 14.9185 17.6342C15.1683 17.3844 15.3228 17.0392 15.3228 16.6578C15.3228 16.2765 15.1682 15.9313 14.9185 15.6815ZM21.2196 15.6815C20.9698 15.4317 20.6246 15.2772 20.2432 15.2772C19.8619 15.2772 19.5167 15.4317 19.2669 15.6815C19.0171 15.9313 18.8626 16.2765 18.8626 16.6578C18.8626 17.0392 19.0172 17.3844 19.2669 17.6342C19.5167 17.884 19.8619 18.0385 20.2432 18.0385C20.6246 18.0385 20.9698 17.8839 21.2196 17.6342C21.4694 17.3844 21.6239 17.0392 21.6239 16.6578C21.6239 16.2765 21.4693 15.9313 21.2196 15.6815ZM27.5206 15.6815C27.2709 15.4317 26.9256 15.2772 26.5443 15.2772C26.163 15.2772 25.8178 15.4317 25.568 15.6815C25.3182 15.9313 25.1637 16.2765 25.1637 16.6578C25.1637 17.0392 25.3182 17.3844 25.568 17.6342C25.8178 17.884 26.163 18.0385 26.5443 18.0385C26.9256 18.0385 27.2709 17.8839 27.5206 17.6342C27.7705 17.3844 27.925 17.0392 27.925 16.6578C27.925 16.2765 27.7704 15.9313 27.5206 15.6815ZM6.94195 23.2918L6.97018 21.9956C6.97032 21.9856 6.96177 21.9727 6.94796 21.9601C6.92069 21.9352 6.8809 21.9193 6.83524 21.9183L2.22071 21.8412C2.17313 21.8404 2.13136 21.8551 2.10245 21.8795C2.08665 21.8929 2.07674 21.9063 2.07647 21.9166L1.84261 32.6684C1.84247 32.6783 1.85095 32.6912 1.86476 32.7038C1.89204 32.7287 1.93175 32.7446 1.97735 32.7457L6.59202 32.8228C6.63959 32.8235 6.68136 32.8088 6.71028 32.7844C6.72607 32.7711 6.73598 32.7576 6.73619 32.7474L6.94188 23.2918L6.94195 23.2918ZM23.8091 22.7357C24.6607 22.8606 25.2124 23.3379 25.4655 23.9133L29.024 20.7519C28.8222 20.3108 28.5056 19.9313 28.1129 19.6521C27.6683 19.3361 27.1247 19.1499 26.5387 19.1499C25.7884 19.1499 25.1061 19.4571 24.6113 19.9519C24.1164 20.4468 23.8092 21.1291 23.8092 21.8793V22.7357H23.8091ZM17.508 22.2016L17.7637 22.2506C18.0426 22.3041 18.3367 22.3606 18.55 22.4008L22.9669 22.6733V21.8792C22.9669 21.129 22.6597 20.4467 22.1648 19.9518C21.67 19.457 20.9877 19.1497 20.2374 19.1497C19.4872 19.1497 18.8049 19.4569 18.31 19.9518C17.8151 20.4467 17.5079 21.129 17.5079 21.8792V22.2015L17.508 22.2016ZM11.2069 22.4818C13.5293 21.6463 14.5953 21.6716 16.6658 22.044V21.8793C16.6658 21.1291 16.3587 20.4468 15.8637 19.9519C15.3689 19.4571 14.6866 19.1499 13.9363 19.1499C13.1861 19.1499 12.5038 19.4571 12.009 19.9519C11.5141 20.4468 11.2069 21.1291 11.2069 21.8793V22.4818ZM7.523 31.0017L7.68228 23.6796L9.98086 23.718C10.0386 23.7233 10.0985 23.7153 10.156 23.6921C10.4375 23.5776 10.7016 23.4731 10.951 23.378C10.9599 23.375 10.9687 23.3717 10.9773 23.3681C13.6308 22.3588 14.6066 22.4199 16.9505 22.8593C16.9644 22.8628 16.9785 22.8654 16.9929 22.8673L17.0402 22.8762C17.0547 22.8798 17.0695 22.8827 17.0846 22.8846C17.2564 22.9171 17.4352 22.9515 17.6228 22.9874C17.8401 23.0291 18.071 23.0735 18.4244 23.14C18.4433 23.1441 18.4627 23.1468 18.4825 23.148L23.2937 23.4448C23.3098 23.4469 23.326 23.448 23.3427 23.448H23.3451L23.3849 23.4504C23.4008 23.4525 23.417 23.4536 23.4334 23.4536H23.4351L23.516 23.4586C24.1885 23.5001 24.6064 23.8209 24.7789 24.2135C24.8337 24.3384 24.8647 24.4704 24.872 24.6028C24.8717 24.6164 24.8723 24.6301 24.8735 24.6437C24.8738 24.663 24.8737 24.6823 24.873 24.7016C24.8675 24.8648 24.8256 25.0261 24.7478 25.1719C24.555 25.5332 24.1319 25.8041 23.4769 25.7932L18.2663 25.7062C18.0596 25.7029 17.8894 25.8678 17.8861 26.0745C17.8829 26.2813 18.0478 26.4514 18.2545 26.4547L23.4651 26.5417C24.4414 26.558 25.0931 26.1145 25.4082 25.5242C25.5318 25.2925 25.6021 25.0387 25.6188 24.7813L29.852 21.0204C30.5579 20.3933 31.4123 20.3836 32.077 20.6993C32.3143 20.812 32.5274 20.9655 32.7011 21.1468C32.8704 21.3235 33.0007 21.5248 33.0773 21.7376C33.2481 22.2124 33.145 22.7679 32.5926 23.2589L24.5818 30.3974L24.5827 30.3984L24.5789 30.4018C23.8424 31.0767 22.3334 31.6226 20.7287 31.9772C18.844 32.3938 16.856 32.5385 15.8287 32.3179L9.91736 31.0482L9.91722 31.0489C9.89405 31.0441 9.87005 31.0413 9.84544 31.0409L7.523 31.002V31.0017ZM11.2352 19.6895C10.5173 18.7561 9.94149 17.7083 9.53988 16.5783C9.11714 15.3889 8.88698 14.1093 8.88698 12.7773C8.88698 9.64301 10.1574 6.80534 12.2115 4.75128C14.2656 2.69722 17.1032 1.42676 20.2375 1.42676C23.3718 1.42676 26.2094 2.69722 28.2635 4.75128C30.3176 6.80534 31.588 9.64294 31.588 12.7773C31.588 14.1093 31.3579 15.389 30.9351 16.5784C30.5334 17.7087 29.9573 18.7568 29.2391 19.6904C29.3808 19.8647 29.506 20.053 29.6124 20.2527C30.5222 19.6032 31.5674 19.627 32.3971 20.0211C32.7173 20.1732 33.0055 20.381 33.2412 20.627C33.4812 20.8775 33.6684 21.1694 33.7819 21.4848C34.0514 22.2341 33.9106 23.0913 33.0917 23.8192L25.0809 30.9577L25.08 30.9568C24.2376 31.7262 22.6038 32.3291 20.8903 32.7078C18.9095 33.1456 16.7934 33.2919 15.6733 33.0513L9.79294 31.7884L7.50687 31.7502L7.48486 32.762C7.47973 32.9997 7.36899 33.2098 7.19474 33.3568C7.03355 33.4928 6.81582 33.5752 6.58046 33.5713C5.04258 33.5455 3.49998 33.5316 1.96286 33.4941C1.72763 33.4889 1.51442 33.3993 1.36013 33.2586C1.19231 33.1056 1.09039 32.8928 1.09435 32.6566C1.1556 29.0729 1.25028 25.4856 1.32821 21.9019C1.3334 21.6642 1.44414 21.4541 1.61832 21.3071C1.77945 21.1711 1.99724 21.0887 2.2326 21.0927C3.77041 21.1184 5.31301 21.1324 6.85 21.1698C7.08523 21.1749 7.29851 21.2646 7.45293 21.4053C7.62076 21.5583 7.72275 21.7711 7.71885 22.0074C7.71331 22.3152 7.70545 22.6233 7.69882 22.9311L9.94299 22.9686C10.1202 22.8968 10.2909 22.8288 10.4557 22.7645V21.8793C10.4557 21.0512 10.7485 20.2885 11.2354 19.6894L11.2352 19.6895ZM13.0092 14.7403C12.7952 14.8446 12.6011 14.9838 12.4346 15.1503C12.0487 15.5361 11.81 16.0692 11.81 16.6579C11.81 17.2466 12.0487 17.7796 12.4346 18.1655C12.5843 18.3154 12.7564 18.4429 12.9452 18.543C12.5134 18.6721 12.1161 18.8831 11.7717 19.1578C11.129 18.3061 10.6115 17.3539 10.2472 16.3289C9.85296 15.2197 9.63832 14.0242 9.63832 12.7773C9.63832 11.7137 9.79506 10.6868 10.0866 9.7182C10.1676 9.91152 10.2488 10.0869 10.3303 10.2329C10.447 10.4418 10.5655 10.5958 10.699 10.7234C10.8327 10.8511 10.9732 10.9455 11.1371 11.0376C11.2146 11.0812 11.3106 11.1307 11.4121 11.183C11.627 11.2938 11.87 11.4191 12.0988 11.5865C12.2601 11.7045 12.4194 11.8463 12.5599 11.995C12.6958 12.1387 12.8122 12.2867 12.893 12.4226C12.9656 12.5446 13.0077 12.6549 13.028 12.7599C13.0482 12.8649 13.0477 12.972 13.0345 13.0848C13.0246 13.1694 13.0069 13.2611 12.9887 13.3562C12.9448 13.586 12.8976 13.8329 12.9112 14.1347C12.9182 14.2888 12.9416 14.4504 12.9777 14.6115C12.9874 14.6547 12.9979 14.6976 13.0092 14.7403ZM10.4754 8.64216C11.0116 7.37792 11.7862 6.23919 12.7428 5.28257C14.2401 3.78522 16.1835 2.73379 18.3565 2.34462C18.6111 2.48899 18.8748 2.61361 19.1177 2.72839C19.3779 2.8513 19.612 2.96204 19.7562 3.06116L19.7559 3.0615L19.7677 3.06984L19.7681 3.0693C19.8147 3.10389 19.8349 3.14101 19.8345 3.1784C19.8334 3.25981 19.7844 3.3668 19.7007 3.48759L19.6852 3.50987C19.567 3.6738 19.3972 3.8408 19.2096 3.97041C19.0551 4.07719 18.8948 4.15437 18.7538 4.17453C18.5396 4.20509 18.301 4.0873 18.0756 3.97602C17.9886 3.93302 17.903 3.89077 17.8144 3.85311C17.5941 3.75952 17.3732 3.70278 17.1736 3.69472C16.9428 3.68542 16.7345 3.73997 16.5706 3.87266C16.4049 4.00671 16.3109 4.20119 16.265 4.42425C16.2284 4.60171 16.2226 4.79838 16.2327 4.99095C16.2377 5.08699 16.2423 5.14168 16.2468 5.19589C16.264 5.40192 16.2807 5.60153 16.2174 5.71296C16.1638 5.80729 16.0242 5.91995 15.8682 6.0458C15.7313 6.15641 15.5843 6.27508 15.4399 6.42349C15.2197 6.64976 15.0347 6.91725 14.8602 7.16942C14.772 7.29678 14.687 7.41969 14.5962 7.53521C14.45 7.72143 14.3038 7.86218 14.1734 7.98775C14.0883 8.06972 14.0089 8.14621 13.9385 8.22325C13.8274 8.34493 13.7332 8.47235 13.6593 8.61187C13.5819 8.75789 13.5292 8.91361 13.5055 9.08513V9.08663C13.4843 9.24099 13.4878 9.4043 13.5103 9.57041C13.5333 9.74042 13.5772 9.91603 13.6347 10.0886C13.6873 10.2466 13.7512 10.4012 13.8242 10.5502C13.9022 10.7096 13.9868 10.8582 14.0757 10.9939C14.166 11.1317 14.267 11.2662 14.3936 11.4032C14.5183 11.5381 14.661 11.6662 14.8334 11.7893C14.936 11.8626 15.0474 11.933 15.1631 12.0061C15.3871 12.1476 15.6297 12.3009 15.808 12.4843C15.9345 12.6145 16.0486 12.7819 16.1683 12.9575C16.308 13.1623 16.4542 13.3768 16.6542 13.5914C16.8176 13.7667 16.9061 13.9399 16.9893 14.1027C17.0773 14.275 17.1609 14.4386 17.3046 14.6062C17.4464 14.7716 17.45 15.0202 17.3944 15.2832C17.326 15.6068 17.1652 15.9564 17.0312 16.2383C16.9042 16.5055 16.673 16.7341 16.3953 16.911C16.279 16.9851 16.1552 17.0497 16.0276 17.1042C16.0583 16.9602 16.0744 16.8109 16.0744 16.6578C16.0744 16.0691 15.8358 15.5361 15.4499 15.1502C15.0641 14.7644 14.531 14.5257 13.9423 14.5257C13.8709 14.5257 13.8002 14.5293 13.7305 14.5361C13.7227 14.5062 13.7154 14.4765 13.7088 14.447C13.682 14.3277 13.6648 14.2106 13.6599 14.1023C13.6503 13.8908 13.6894 13.6868 13.7257 13.497C13.7469 13.3864 13.7672 13.2797 13.7801 13.1698C13.8016 12.9871 13.8011 12.8072 13.7649 12.6188C13.7286 12.4304 13.6577 12.2407 13.539 12.0409C13.4297 11.8571 13.2786 11.6638 13.106 11.4812C12.9343 11.2995 12.7394 11.1261 12.5422 10.9817C12.266 10.7797 11.9952 10.64 11.7557 10.5166C11.67 10.4724 11.5889 10.4306 11.5041 10.3829C11.3898 10.3186 11.2955 10.2565 11.2157 10.1802C11.1357 10.1038 11.0618 10.0063 10.985 9.86873C10.8961 9.70952 10.8054 9.50362 10.7139 9.27435C10.6392 9.08711 10.5578 8.86727 10.4754 8.64195L10.4754 8.64216ZM27.9918 11.2463C27.9715 11.2754 28.0083 11.2259 28.015 11.2202L28.01 11.2225C28.0031 11.2309 27.997 11.2389 27.9918 11.2463ZM30.6732 10.9135C30.7806 11.5186 30.8366 12.1414 30.8366 12.7773C30.8366 14.0242 30.6219 15.2197 30.2277 16.3289C29.8633 17.3543 29.3456 18.3067 28.7025 19.1586C28.6519 19.1182 28.6001 19.0791 28.5473 19.0416C28.2423 18.8248 27.9017 18.6558 27.5365 18.5455C27.7272 18.445 27.9009 18.3165 28.052 18.1654C28.4378 17.7796 28.6765 17.2466 28.6765 16.6578C28.6765 16.0691 28.4379 15.5361 28.052 15.1502C27.8462 14.9444 27.5984 14.7805 27.3227 14.6723C27.3407 14.5287 27.3514 14.3951 27.3618 14.2646C27.3791 14.0479 27.3957 13.8401 27.4405 13.6457C27.5103 13.3432 27.6568 13.0157 27.7844 12.73C27.8361 12.6143 27.8853 12.5044 27.9171 12.4278C27.9993 12.2295 28.0561 12.057 28.0876 11.9034C28.1254 11.7194 28.1266 11.5607 28.0912 11.4191C28.0716 11.3405 28.0433 11.2788 28.0161 11.2196C28.0161 11.2194 28.0157 11.2196 28.0151 11.2201L28.0101 11.2223C28.0602 11.1611 28.1525 11.0765 28.2526 10.9848C28.4274 10.8245 28.621 10.6471 28.7556 10.4564C28.934 10.2036 28.9978 9.96156 29.0205 9.75778C29.0806 9.79572 29.1454 9.8405 29.2131 9.89231C29.3539 10.0003 29.5015 10.1365 29.6348 10.3016C29.9567 10.7001 30.3009 10.8024 30.5942 10.8895C30.6215 10.8976 30.648 10.9055 30.6732 10.9133V10.9135ZM22.405 8.47078L22.3798 8.47611L22.405 8.47105V8.47071L22.405 8.47078ZM24.5478 17.4075C24.6558 17.6947 24.8238 17.9525 25.0368 18.1654C25.1866 18.3152 25.3586 18.4428 25.5474 18.5429C24.9866 18.7105 24.4841 19.0165 24.0799 19.4207C23.7963 19.7043 23.5611 20.0364 23.3881 20.403C23.215 20.0364 22.9798 19.7043 22.6962 19.4207C22.2938 19.0183 21.7939 18.7133 21.236 18.5452C21.4265 18.4448 21.6 18.3164 21.7508 18.1654C22.1367 17.7796 22.3754 17.2466 22.3754 16.6578C22.3754 16.0691 22.1367 15.5361 21.7508 15.1502C21.365 14.7644 20.832 14.5257 20.2432 14.5257C19.6545 14.5257 19.1215 14.7644 18.7356 15.1502C18.3498 15.5361 18.1111 16.0691 18.1111 16.6578C18.1111 17.2466 18.3498 17.7796 18.7356 18.1654C18.8854 18.3152 19.0574 18.4428 19.2462 18.5429C18.6854 18.7105 18.1828 19.0165 17.7787 19.4207C17.4951 19.7043 17.2598 20.0364 17.0868 20.403C16.9138 20.0364 16.6786 19.7043 16.395 19.4207C15.9926 19.0183 15.4927 18.7133 14.9348 18.5452C15.1252 18.4448 15.2987 18.3164 15.4496 18.1654C15.4977 18.1174 15.5435 18.067 15.5868 18.0145C15.9983 17.9408 16.4261 17.7785 16.7972 17.5421C17.1873 17.2935 17.5178 16.9607 17.7091 16.5582C17.86 16.2407 18.0417 15.8442 18.1281 15.4358C18.2273 14.9668 18.1981 14.4972 17.8739 14.119C17.7844 14.0145 17.7216 13.8917 17.6554 13.7623C17.548 13.552 17.4336 13.3283 17.2029 13.0807C17.0418 12.9079 16.9118 12.7171 16.7875 12.535C16.6501 12.3333 16.5188 12.1409 16.345 11.962C16.1052 11.7154 15.8229 11.537 15.5621 11.3722C15.4569 11.3057 15.3556 11.2417 15.2676 11.1789C15.1358 11.0847 15.0306 10.9911 14.9423 10.8956C14.8559 10.8021 14.7787 10.6975 14.7037 10.5832C14.6247 10.4624 14.5547 10.341 14.4963 10.2216C14.4373 10.1012 14.3862 9.97797 14.3449 9.8539C14.3023 9.72579 14.2697 9.59591 14.2528 9.47074C14.239 9.36923 14.2362 9.27332 14.2479 9.18801H14.2481C14.2592 9.10741 14.2848 9.03269 14.3226 8.96133C14.3638 8.88353 14.4218 8.80656 14.4932 8.72829C14.5537 8.66198 14.6209 8.59725 14.6929 8.528C14.8436 8.3828 15.0126 8.22011 15.1861 7.99917C15.2769 7.88357 15.3749 7.74187 15.4764 7.59517C15.633 7.3689 15.7991 7.12882 15.9769 6.94603C16.0889 6.83098 16.2178 6.72693 16.3377 6.63C16.5524 6.45671 16.7445 6.30167 16.8688 6.08285C17.048 5.76758 17.022 5.45593 16.9952 5.1343C16.989 5.0604 16.9827 4.98596 16.981 4.95287C16.9738 4.81506 16.9766 4.68128 16.9986 4.57402C17.0114 4.5123 17.0261 4.46766 17.043 4.45392C17.0549 4.44428 17.0911 4.44113 17.144 4.44325C17.2499 4.44756 17.3803 4.48331 17.5207 4.54292C17.5913 4.57293 17.6669 4.61025 17.7438 4.64819C18.0706 4.80952 18.4165 4.98035 18.8593 4.91712C19.1211 4.87973 19.3911 4.75538 19.6351 4.58681C19.8917 4.40941 20.1268 4.1774 20.2927 3.94724L20.317 3.91319C20.4823 3.67448 20.5795 3.42716 20.5828 3.18715C20.5867 2.90394 20.4707 2.65292 20.202 2.45926L20.1991 2.45632L20.1873 2.44798L20.1843 2.44647C20.0564 2.35788 19.9017 2.27489 19.7297 2.1902C19.8979 2.18227 20.0672 2.1781 20.2374 2.1781C21.516 2.1781 22.7417 2.4045 23.8766 2.81938C23.8653 2.8243 23.8564 2.82751 23.8502 2.8286C23.5853 2.87748 23.3622 2.96532 23.1787 3.0723C22.95 3.20581 22.7777 3.37192 22.66 3.53291C22.4848 3.77265 22.438 3.97335 22.3848 4.2014C22.3718 4.25704 22.3584 4.31446 22.3477 4.35473C22.3143 4.47969 22.2683 4.6162 22.207 4.74164C22.1602 4.83728 22.1045 4.92751 22.0386 5.00195C21.9511 5.1008 21.8247 5.19097 21.7009 5.27942C21.5933 5.35612 21.4873 5.43187 21.3797 5.53058C21.2373 5.66107 21.1146 5.81755 21.0602 5.96972C21.0303 6.05353 21.0177 6.14075 21.0268 6.22962C21.0379 6.33783 21.0801 6.43723 21.1595 6.52391C21.2223 6.5924 21.3022 6.64634 21.4015 6.68182C21.7122 6.79276 22.3432 6.72796 22.8025 6.68086L22.8614 6.67471C23.0517 6.65529 23.2107 6.64066 23.3663 6.6285C23.5149 6.61687 23.6244 6.61045 23.7233 6.60676C23.826 6.60293 23.9299 6.60095 24.0327 6.61182C24.121 6.62111 24.2135 6.64169 24.3125 6.68325C24.4214 6.72885 24.5336 6.79584 24.6333 6.87151C24.7341 6.94808 24.8219 7.03161 24.8801 7.1092C24.919 7.16115 24.9408 7.20627 24.9494 7.24428C24.9533 7.26137 24.954 7.27477 24.9525 7.28468C24.9283 7.29876 24.8844 7.31154 24.8178 7.32337C24.7153 7.34169 24.5802 7.35174 24.4253 7.36336C24.2406 7.3771 24.0305 7.39282 23.7964 7.42625C23.4881 7.47027 23.1657 7.54082 22.8397 7.61219C22.6595 7.65163 22.4789 7.69114 22.3919 7.70892C22.1619 7.75574 22.43 7.70037 22.2596 7.73428V7.73455C21.795 7.82704 21.3544 7.91502 20.9794 8.20541C20.7991 8.34507 20.648 8.52465 20.525 8.71182C20.3693 8.94889 20.2586 9.19689 20.1918 9.38584C20.1034 9.63638 20.0859 9.79107 20.071 9.92239C20.0669 9.95931 20.063 9.99369 20.0574 10.0225C20.0527 10.0476 20.0466 10.0719 20.0404 10.0973C20.0007 10.2582 19.955 10.4439 20.0117 10.7372C20.041 10.8889 20.1011 11.0665 20.1791 11.2519C20.2601 11.4441 20.3631 11.6489 20.4716 11.8413C20.579 12.0318 20.6918 12.2104 20.8177 12.3587C20.966 12.5332 21.1344 12.6721 21.3347 12.7534C21.6861 12.8962 22.0576 12.8365 22.3706 12.7862C22.424 12.7777 22.3934 12.7823 22.4371 12.7754C22.5559 12.7569 22.6573 12.7438 22.7311 12.7462C22.7496 12.7468 22.7336 12.7242 22.7449 12.7338C22.7478 12.7363 22.7472 12.7519 22.7561 12.7819C22.7754 12.8478 22.7885 12.9357 22.7997 13.0149L22.8032 13.0392C22.8309 13.2332 22.8527 13.3866 22.9464 13.6159C22.9977 13.7414 23.0571 13.8589 23.1245 13.9924C23.1844 14.1113 23.2509 14.243 23.3088 14.3696C23.3708 14.5055 23.4326 14.6535 23.4715 14.8036C23.5059 14.9361 23.5226 15.0727 23.504 15.206C23.4919 15.293 23.4564 15.3555 23.4197 15.4203C23.322 15.5927 23.2195 15.7736 23.209 16.1889C23.2072 16.2613 23.212 16.3312 23.2229 16.3983C23.2726 16.7049 23.442 16.9589 23.6833 17.1366C23.9074 17.3015 24.196 17.3991 24.505 17.4069C24.5192 17.4072 24.5335 17.4074 24.5478 17.4073L24.5478 17.4075ZM24.7729 3.19501C25.8778 3.71885 26.8777 4.42801 27.7322 5.2825C29.0319 6.58222 29.9955 8.21806 30.4818 10.0483C30.3892 9.99875 30.299 9.93121 30.2189 9.83202C30.0433 9.61471 29.8509 9.43677 29.668 9.29656C29.4174 9.10447 29.1745 8.97821 29.017 8.91765C28.2817 8.63484 28.2817 8.89208 28.2817 9.45823C28.2817 9.60315 28.2817 9.82717 28.142 10.025C28.0491 10.1567 27.8907 10.3019 27.7477 10.433C27.5966 10.5715 27.4589 10.6978 27.3755 10.8177C27.1542 11.1357 27.2393 11.3218 27.3351 11.5308C27.3464 11.5554 27.3582 11.5811 27.3632 11.6012C27.3713 11.6334 27.3681 11.6835 27.3538 11.7537C27.3331 11.8545 27.2899 11.9821 27.2243 12.1402C27.1806 12.2457 27.1415 12.3329 27.1005 12.4248C26.9583 12.743 26.7952 13.1079 26.7096 13.4784C26.6511 13.7321 26.6326 13.964 26.6132 14.2059C26.6048 14.3111 26.5963 14.4184 26.5846 14.5262C26.5713 14.5259 26.5579 14.5258 26.5444 14.5258C25.9557 14.5258 25.4227 14.7644 25.0368 15.1503C24.6531 15.534 24.4149 16.0633 24.4123 16.6482C24.3035 16.6302 24.2053 16.59 24.1266 16.5321C24.0393 16.4679 23.9789 16.3812 23.9627 16.2811C23.9588 16.2568 23.957 16.232 23.9576 16.2067C23.9633 15.9812 24.0187 15.8835 24.0714 15.7904C24.1444 15.6616 24.2149 15.5374 24.2467 15.309C24.2803 15.0685 24.2535 14.8355 24.1966 14.6159C24.1442 14.4139 24.0669 14.2272 23.9898 14.0588C23.9167 13.8988 23.8521 13.7708 23.7938 13.6552C23.7283 13.5254 23.6706 13.4113 23.6392 13.3344C23.5835 13.1982 23.5669 13.0814 23.5459 12.9338L23.5424 12.9095C23.5276 12.8061 23.5102 12.6897 23.4753 12.5708C23.4298 12.4162 23.3569 12.2715 23.2321 12.1646C23.0992 12.0507 22.9404 12.0039 22.7546 11.998C22.6242 11.9938 22.4821 12.0112 22.3227 12.0361C22.2345 12.0499 22.2606 12.0457 22.2533 12.0469C22.0356 12.0818 21.7772 12.1233 21.6166 12.0581C21.5387 12.0265 21.4636 11.961 21.3902 11.8747C21.2945 11.762 21.2073 11.6234 21.1234 11.4747C21.0296 11.3084 20.94 11.1303 20.869 10.9616C20.8117 10.8254 20.7684 10.6988 20.7486 10.5966C20.7227 10.4625 20.7472 10.3629 20.7684 10.2766C20.778 10.2375 20.7874 10.1997 20.7942 10.1637C20.805 10.1074 20.8106 10.058 20.8166 10.0048C20.827 9.91351 20.8391 9.80591 20.8993 9.63556C20.9515 9.48776 21.0357 9.29725 21.1502 9.12293C21.2314 8.99927 21.3277 8.8834 21.4373 8.79856C21.6661 8.62138 22.0125 8.54946 22.3798 8.47625C22.3775 8.47687 22.3932 8.47379 22.4063 8.47119H22.405V8.47078L22.4063 8.47058L22.4065 8.47112C22.4221 8.46805 22.4339 8.46565 22.4065 8.47112L22.4063 8.47058L22.5417 8.44289C22.7543 8.39962 22.8769 8.37275 22.9983 8.34616C23.3159 8.27664 23.6302 8.20787 23.9021 8.16904C24.1083 8.13958 24.306 8.12488 24.4798 8.11196H24.4813C24.6609 8.09856 24.8176 8.08694 24.95 8.06329C25.1223 8.03253 25.2596 7.98099 25.3713 7.90716C25.5084 7.81644 25.5977 7.69962 25.652 7.55456C25.7039 7.41641 25.7197 7.25453 25.6803 7.08008C25.6499 6.94541 25.5861 6.80315 25.479 6.66028C25.38 6.52828 25.2402 6.39341 25.0854 6.27583C24.9317 6.15914 24.7627 6.05756 24.6032 5.9907C24.4327 5.9192 24.2687 5.88324 24.1092 5.86649C23.9643 5.85125 23.829 5.85364 23.697 5.8585C23.5612 5.86349 23.4402 5.87012 23.3106 5.88023C23.1884 5.88974 23.0217 5.9056 22.7866 5.92952L22.7262 5.93554C22.4954 5.95919 22.213 5.98817 21.9901 5.99597C22.0356 5.96138 22.0853 5.9259 22.1354 5.89015C22.2928 5.77783 22.4533 5.66326 22.5993 5.49817C22.7127 5.36986 22.8049 5.22248 22.8792 5.07052C22.9668 4.89148 23.0293 4.70842 23.0727 4.54565C23.0923 4.47244 23.1042 4.42124 23.1157 4.37182C23.1506 4.22211 23.1814 4.09031 23.2647 3.97636C23.3275 3.89036 23.4239 3.7991 23.5574 3.72124C23.6748 3.65268 23.8171 3.59655 23.9852 3.56559C24.1415 3.53674 24.294 3.45013 24.4579 3.35709C24.573 3.29174 24.697 3.22133 24.7727 3.19515L24.7729 3.19501Z" fill="black"/>
</g>
<defs>
<clipPath id="clip0_1_172">
<rect width="35" height="35" fill="white" transform="translate(0 0.000976562)"/>
</clipPath>
</defs>
</svg>
