<svg width="36" height="35" viewBox="0 0 36 35" fill="none" xmlns="http://www.w3.org/2000/svg">
<path d="M28.6421 26.4398C21.7715 35.9141 6.59359 31.869 5.28815 20.2442C4.32917 12.9678 10.2275 6.05427 17.5237 5.79697C17.6639 5.78982 17.796 5.7291 17.8927 5.62735C17.9894 5.52559 18.0433 5.39059 18.0433 5.25022V3.3853C18.0433 3.36766 18.048 3.35033 18.0568 3.33506C18.0657 3.31978 18.0784 3.3071 18.0937 3.29828C18.1089 3.28946 18.1263 3.28481 18.1439 3.2848C18.1616 3.28478 18.1789 3.28941 18.1942 3.2982L24.9948 7.22523C25.0101 7.234 25.0229 7.24668 25.0317 7.26198C25.0406 7.27727 25.0453 7.29464 25.0453 7.31233C25.0453 7.33001 25.0406 7.34738 25.0317 7.36267C25.0229 7.37797 25.0101 7.39065 24.9948 7.39943L18.1945 11.3264C18.1792 11.3353 18.1618 11.3399 18.1442 11.34C18.1265 11.34 18.1091 11.3353 18.0938 11.3265C18.0785 11.3177 18.0657 11.305 18.0569 11.2897C18.048 11.2744 18.0433 11.257 18.0433 11.2393V9.01801C18.0433 8.94439 18.0285 8.87152 17.9997 8.80377C17.9709 8.73601 17.9288 8.67475 17.8758 8.62365C17.8234 8.57176 17.7607 8.5314 17.6918 8.50518C17.6228 8.47895 17.5492 8.46743 17.4755 8.47136C15.6152 8.53424 13.8112 9.12549 12.2745 10.176C10.7378 11.2264 9.53201 12.6927 8.79805 14.4033C5.75085 21.2747 10.7495 29.0914 18.1874 29.0442C20.3055 29.05 22.3727 28.3949 24.1008 27.1702C24.1595 27.1288 24.2095 27.0761 24.2478 27.0153C24.2862 26.9545 24.3122 26.8867 24.3243 26.8159C24.3365 26.745 24.3346 26.6725 24.3187 26.6024C24.3028 26.5322 24.2732 26.466 24.2317 26.4073C24.1902 26.3486 24.1375 26.2987 24.0767 26.2603C24.0159 26.222 23.9481 26.1961 23.8772 26.1839C23.8064 26.1718 23.7338 26.1738 23.6637 26.1897C23.5936 26.2056 23.5273 26.2352 23.4687 26.2768C21.9252 27.3704 20.079 27.9553 18.1873 27.9499C16.6725 27.9513 15.1808 27.5779 13.8453 26.8629C12.5098 26.148 11.372 25.1138 10.5331 23.8524C6.85246 18.4678 10.0822 10.2134 16.949 9.60426L16.9489 11.2393C16.951 11.4484 17.0075 11.6532 17.1129 11.8337C17.2183 12.0142 17.369 12.1641 17.55 12.2686C17.7311 12.3731 17.9362 12.4286 18.1452 12.4296C18.3543 12.4306 18.5599 12.3771 18.742 12.2744L25.5417 8.34738C25.7235 8.24255 25.8744 8.09171 25.9794 7.91003C26.0843 7.72835 26.1396 7.52223 26.1397 7.3124C26.1397 7.10258 26.0845 6.89644 25.9795 6.71473C25.8746 6.53302 25.7237 6.38214 25.542 6.27727L18.7417 2.35025C18.5597 2.24759 18.354 2.19415 18.145 2.19521C17.9361 2.19626 17.731 2.25177 17.55 2.35627C17.369 2.46076 17.2184 2.61063 17.113 2.79109C17.0076 2.97155 16.951 3.17636 16.9489 3.38534V4.73991C9.25656 5.30366 3.19014 12.6703 4.20053 20.3647C5.6596 32.9735 21.9909 37.3858 29.5243 27.0873C29.6071 26.9701 29.6406 26.8251 29.6176 26.6836C29.5946 26.542 29.5169 26.4151 29.4012 26.3302C29.2856 26.2453 29.1412 26.2093 28.9992 26.2297C28.8573 26.2502 28.729 26.3257 28.6421 26.4398Z" fill="#111111"/>
<path d="M27.0649 18.6173V18.1937C27.48 18.1831 27.8761 18.0174 28.175 17.7292C28.4739 17.441 28.654 17.0513 28.6798 16.6369C28.654 16.2225 28.4739 15.8327 28.175 15.5444C27.8761 15.2562 27.4801 15.0903 27.0649 15.0796V14.1099H28.1326C28.2777 14.1099 28.4169 14.0523 28.5195 13.9497C28.6221 13.8471 28.6798 13.7079 28.6798 13.5628C28.6798 13.4176 28.6221 13.2785 28.5195 13.1758C28.4169 13.0732 28.2777 13.0156 28.1326 13.0156H27.0649V12.6068C27.0621 12.4635 27.0032 12.3271 26.9009 12.2268C26.7986 12.1265 26.661 12.0703 26.5177 12.0703C26.3745 12.0703 26.2369 12.1265 26.1346 12.2268C26.0323 12.3271 25.9734 12.4636 25.9706 12.6068V13.0304C25.5554 13.041 25.1593 13.2068 24.8603 13.4951C24.5614 13.7833 24.3812 14.1732 24.3555 14.5877C24.3813 15.0021 24.5614 15.3918 24.8604 15.68C25.1594 15.9682 25.5555 16.1339 25.9706 16.1444V17.1141H24.9027C24.7575 17.1141 24.6184 17.1718 24.5157 17.2744C24.4131 17.377 24.3555 17.5162 24.3555 17.6613C24.3555 17.8064 24.4131 17.9456 24.5157 18.0482C24.6184 18.1508 24.7575 18.2085 24.9027 18.2085H25.9706V18.6173C25.9734 18.7605 26.0323 18.897 26.1346 18.9973C26.2369 19.0976 26.3745 19.1538 26.5178 19.1538C26.661 19.1538 26.7986 19.0976 26.9009 18.9973C27.0032 18.897 27.0621 18.7605 27.0649 18.6173ZM27.5854 16.6369C27.5854 16.855 27.3581 17.036 27.0649 17.0901V16.1832C27.3581 16.2373 27.5854 16.4184 27.5854 16.6369ZM25.4499 14.5877C25.4499 14.3692 25.6774 14.1881 25.9706 14.1339V15.0409C25.6774 14.9867 25.4499 14.8057 25.4499 14.5877Z" fill="#111111"/>
<path d="M28.2512 21.5747C27.8268 21.73 27.4273 21.9463 27.0652 22.2167V20.9533C28.4346 20.813 29.6979 20.1521 30.5941 19.107C31.4902 18.062 31.9507 16.7126 31.8805 15.3378C31.8103 13.9629 31.2146 12.6675 30.2167 11.7192C29.2187 10.7709 27.8946 10.2422 26.518 10.2422C25.1413 10.2422 23.8172 10.7709 22.8193 11.7192C21.8213 12.6675 21.2257 13.9629 21.1554 15.3378C21.0852 16.7126 21.5457 18.062 22.4419 19.107C23.338 20.1521 24.6013 20.813 25.9708 20.9533V22.2164C25.6088 21.9461 25.2094 21.7299 24.7851 21.5747C23.4385 21.0782 22.1157 21.2172 21.4931 21.922C21.402 22.0252 21.3532 22.159 21.3563 22.2966C21.3436 23.9407 24.2794 25.412 25.9708 24.8829V26.58C25.9713 26.7249 26.0291 26.8636 26.1317 26.9658C26.2343 27.0681 26.3732 27.1255 26.518 27.1255C26.6628 27.1255 26.8018 27.0681 26.9043 26.9658C27.0069 26.8636 27.0647 26.7249 27.0652 26.58V24.8829C27.3168 24.9501 27.5759 24.9847 27.8363 24.986C29.4232 25.0643 32.2639 23.4828 31.5427 21.922C30.9203 21.2172 29.597 21.0782 28.2512 21.5747ZM22.2428 15.6112C22.2442 14.4778 22.695 13.3912 23.4965 12.5898C24.2979 11.7884 25.3846 11.3376 26.518 11.3363C32.1816 11.5513 32.1796 19.6726 26.5179 19.8866C25.3844 19.8853 24.2978 19.4344 23.4963 18.6329C22.6948 17.8314 22.2441 16.7447 22.2428 15.6112ZM24.0145 23.6624C23.3907 23.4706 22.8571 23.0602 22.5116 22.5066C23.1339 22.3078 23.8072 22.3416 24.4065 22.6017C25.0317 22.7933 25.5662 23.2051 25.911 23.7607C25.2876 23.9575 24.6142 23.9226 24.0145 23.6624ZM29.0215 23.6624C28.4217 23.9221 27.7485 23.957 27.125 23.7607C27.4966 23.2305 28.0211 22.8263 28.6285 22.6022C29.2359 22.3781 29.8972 22.3447 30.5241 22.5066C30.1787 23.0602 29.6452 23.4706 29.0215 23.6624Z" fill="#111111"/>
<path d="M13.9661 20.5008C13.8943 20.5008 13.8231 20.5149 13.7567 20.5424C13.6903 20.5699 13.63 20.6102 13.5792 20.661C13.5283 20.7118 13.488 20.7722 13.4605 20.8386C13.4331 20.905 13.4189 20.9761 13.4189 21.048V22.1531H12.44C12.368 22.1528 12.2966 22.1668 12.2301 22.1942C12.1635 22.2216 12.1029 22.2619 12.0519 22.3127C12.001 22.3635 11.9605 22.4239 11.9329 22.4904C11.9053 22.5569 11.8911 22.6282 11.8911 22.7002C11.8911 22.7722 11.9053 22.8435 11.9329 22.91C11.9605 22.9765 12.001 23.0369 12.0519 23.0878C12.1029 23.1386 12.1635 23.1789 12.2301 23.2063C12.2966 23.2337 12.368 23.2476 12.44 23.2474H19.8387C19.982 23.2446 20.1184 23.1857 20.2187 23.0834C20.319 22.9811 20.3752 22.8435 20.3752 22.7002C20.3752 22.5569 20.319 22.4194 20.2187 22.3171C20.1184 22.2148 19.982 22.1559 19.8387 22.1531H18.8598V17.6617C18.857 17.5184 18.7982 17.3819 18.6959 17.2816C18.5935 17.1812 18.4559 17.125 18.3126 17.125C18.1693 17.125 18.0317 17.1812 17.9294 17.2816C17.827 17.382 17.7682 17.5185 17.7654 17.6618V22.1531H16.6866V19.4834C16.6838 19.3401 16.6249 19.2036 16.5226 19.1032C16.4203 19.0029 16.2827 18.9466 16.1394 18.9466C15.996 18.9466 15.8584 19.0029 15.7561 19.1032C15.6538 19.2036 15.5949 19.3401 15.5922 19.4834V22.1531H14.5133V21.048C14.5133 20.9761 14.4992 20.905 14.4717 20.8386C14.4442 20.7722 14.4039 20.7118 14.3531 20.661C14.3023 20.6102 14.2419 20.5699 14.1755 20.5424C14.1091 20.5149 14.038 20.5008 13.9661 20.5008Z" fill="#111111"/>
</svg>
