<svg width="10" height="10" viewBox="0 0 10 10" fill="none" xmlns="http://www.w3.org/2000/svg">
<path d="M5.00005 0.903615C6.32535 0.903615 6.50607 0.903615 7.04824 0.903615C7.53017 0.903615 7.77113 1.0241 7.95185 1.08434C8.19282 1.20482 8.37354 1.26506 8.55426 1.44578C8.73499 1.62651 8.85547 1.80723 8.91571 2.04819C8.97595 2.22892 9.03619 2.46988 9.09643 2.95181C9.09643 3.49398 9.09643 3.61446 9.09643 5C9.09643 6.38554 9.09643 6.50603 9.09643 7.04819C9.09643 7.53012 8.97595 7.77109 8.91571 7.95181C8.79523 8.19277 8.73499 8.3735 8.55426 8.55422C8.37354 8.73494 8.19282 8.85542 7.95185 8.91566C7.77113 8.97591 7.53017 9.03615 7.04824 9.09639C6.50607 9.09639 6.38559 9.09639 5.00005 9.09639C3.6145 9.09639 3.49402 9.09639 2.95185 9.09639C2.46993 9.09639 2.22896 8.97591 2.04824 8.91566C1.80728 8.79518 1.62655 8.73494 1.44583 8.55422C1.26511 8.3735 1.14462 8.19277 1.08438 7.95181C1.02414 7.77109 0.963901 7.53012 0.90366 7.04819C0.90366 6.50603 0.90366 6.38554 0.90366 5C0.90366 3.61446 0.90366 3.49398 0.90366 2.95181C0.90366 2.46988 1.02414 2.22892 1.08438 2.04819C1.20487 1.80723 1.26511 1.62651 1.44583 1.44578C1.62655 1.26506 1.80728 1.14458 2.04824 1.08434C2.22896 1.0241 2.46993 0.963856 2.95185 0.903615C3.49402 0.903615 3.67475 0.903615 5.00005 0.903615ZM5.00005 0C3.6145 0 3.49402 0 2.95185 0C2.40968 0 2.04824 0.120482 1.74703 0.240964C1.44583 0.361446 1.14462 0.542169 0.84342 0.843374C0.542215 1.14458 0.421733 1.38554 0.24101 1.74699C0.120528 2.04819 0.0602867 2.40964 4.57764e-05 2.95181C4.57764e-05 3.49398 4.57764e-05 3.6747 4.57764e-05 5C4.57764e-05 6.38554 4.57764e-05 6.50603 4.57764e-05 7.04819C4.57764e-05 7.59036 0.120528 7.95181 0.24101 8.25301C0.361492 8.55422 0.542215 8.85542 0.84342 9.15663C1.14462 9.45783 1.38559 9.57831 1.74703 9.75904C2.04824 9.87952 2.40968 9.93976 2.95185 10C3.49402 10 3.67475 10 5.00005 10C6.32535 10 6.50607 10 7.04824 10C7.59041 10 7.95185 9.87952 8.25306 9.75904C8.55426 9.63856 8.85547 9.45783 9.15667 9.15663C9.45788 8.85542 9.57836 8.61446 9.75908 8.25301C9.87957 7.95181 9.93981 7.59036 10 7.04819C10 6.50603 10 6.3253 10 5C10 3.6747 10 3.49398 10 2.95181C10 2.40964 9.87957 2.04819 9.75908 1.74699C9.6386 1.44578 9.45788 1.14458 9.15667 0.843374C8.85547 0.542169 8.6145 0.421687 8.25306 0.240964C7.95185 0.120482 7.59041 0.060241 7.04824 0C6.50607 0 6.38559 0 5.00005 0Z" fill="black"/>
<path d="M5.00005 2.40964C3.55426 2.40964 2.40968 3.55422 2.40968 5C2.40968 6.44578 3.55426 7.59036 5.00005 7.59036C6.44583 7.59036 7.59041 6.44578 7.59041 5C7.59041 3.55422 6.44583 2.40964 5.00005 2.40964ZM5.00005 6.68675C4.09643 6.68675 3.3133 5.96386 3.3133 5C3.3133 4.09639 4.03619 3.31325 5.00005 3.31325C5.90366 3.31325 6.68679 4.03615 6.68679 5C6.68679 5.90362 5.90366 6.68675 5.00005 6.68675Z" fill="black"/>
<path d="M7.65065 2.95181C7.98335 2.95181 8.25306 2.6821 8.25306 2.3494C8.25306 2.0167 7.98335 1.74699 7.65065 1.74699C7.31795 1.74699 7.04824 2.0167 7.04824 2.3494C7.04824 2.6821 7.31795 2.95181 7.65065 2.95181Z" fill="black"/>
</svg>
