<svg width="57" height="57" viewBox="0 0 57 57" fill="none" xmlns="http://www.w3.org/2000/svg">
<path d="M28.375 30.7915C28.8036 30.7934 29.2266 30.6942 29.6096 30.5019C29.9927 30.3096 30.325 30.0297 30.5796 29.685C32.7278 26.803 38.6249 17.5053 38.6249 13.0415C38.6249 10.323 37.545 7.71589 35.6228 5.79365C33.7005 3.87141 31.0934 2.7915 28.375 2.7915C25.6565 2.7915 23.0494 3.87141 21.1271 5.79365C19.2049 7.71589 18.125 10.323 18.125 13.0415C18.125 17.5052 24.0221 26.803 26.1702 29.685C26.4248 30.0297 26.7572 30.3096 27.1402 30.5019C27.5233 30.6942 27.9464 30.7934 28.375 30.7915ZM19.875 13.0415C19.875 10.7871 20.7705 8.62514 22.3646 7.03109C23.9586 5.43703 26.1206 4.5415 28.375 4.5415C30.6293 4.5415 32.7913 5.43703 34.3854 7.03109C35.9794 8.62514 36.8749 10.7871 36.8749 13.0415C36.8749 14.5776 35.8658 17.3366 34.0336 20.8098C32.2842 24.126 30.3238 27.1 29.1766 28.639C29.0835 28.7639 28.9626 28.8653 28.8234 28.9352C28.6842 29.0051 28.5307 29.0414 28.3749 29.0414C28.2192 29.0414 28.0656 29.0051 27.9264 28.9352C27.7872 28.8653 27.6663 28.7639 27.5732 28.639C26.426 27.1 24.4656 24.126 22.7163 20.8098C20.8841 17.3365 19.875 14.5776 19.875 13.0415Z" fill="white"/>
<path d="M34.3056 13.972C34.3056 12.7991 33.9578 11.6525 33.3062 10.6772C32.6545 9.70195 31.7283 8.94182 30.6447 8.49295C29.561 8.04408 28.3686 7.92663 27.2182 8.15545C26.0678 8.38427 25.011 8.94909 24.1816 9.77848C23.3522 10.6079 22.7874 11.6646 22.5585 12.815C22.3297 13.9654 22.4471 15.1578 22.896 16.2415C23.3448 17.3251 24.105 18.2514 25.0802 18.903C26.0555 19.5547 27.2021 19.9025 28.375 19.9026C29.9473 19.9008 31.4548 19.2754 32.5666 18.1636C33.6784 17.0518 34.3038 15.5444 34.3056 13.972ZM24.1945 13.972C24.1945 13.1452 24.4397 12.3369 24.899 11.6495C25.3584 10.962 26.0113 10.4261 26.7752 10.1097C27.5391 9.79332 28.3796 9.71053 29.1906 9.87183C30.0015 10.0331 30.7464 10.4313 31.3311 11.016C31.9157 11.6006 32.3139 12.3455 32.4752 13.1565C32.6365 13.9674 32.5537 14.808 32.2373 15.5719C31.9209 16.3358 31.3851 16.9887 30.6976 17.448C30.0101 17.9074 29.2018 18.1526 28.375 18.1526C27.2666 18.1513 26.2041 17.7104 25.4203 16.9267C24.6366 16.143 24.1957 15.0804 24.1945 13.972Z" fill="white"/>
<path d="M53 33.4165H40.75C40.5179 33.4165 40.2954 33.5087 40.1313 33.6728C39.9672 33.8369 39.875 34.0594 39.875 34.2915V35.1665H29.375C29.2601 35.1665 29.1463 35.1891 29.0401 35.2331C28.934 35.2771 28.8375 35.3415 28.7563 35.4228L26.75 37.429L24.7437 35.4228C24.6625 35.3415 24.566 35.2771 24.4599 35.2331C24.3537 35.1891 24.2399 35.1665 24.125 35.1665H17.125V34.2915C17.125 34.0594 17.0328 33.8369 16.8687 33.6728C16.7046 33.5087 16.4821 33.4165 16.25 33.4165H4C3.76794 33.4165 3.54538 33.5087 3.38128 33.6728C3.21719 33.8369 3.125 34.0594 3.125 34.2915V45.6665C3.125 45.8986 3.21719 46.1211 3.38128 46.2852C3.54538 46.4493 3.76794 46.5415 4 46.5415H16.25C16.4821 46.5415 16.7046 46.4493 16.8687 46.2852C17.0328 46.1211 17.125 45.8986 17.125 45.6665V44.28L18.5637 45.7197C18.1778 46.3245 18.0096 47.0429 18.0869 47.7562C18.1643 48.4696 18.4825 49.1352 18.9892 49.6433L20.7625 51.4166C21.0533 51.7093 21.3991 51.9416 21.7799 52.1002C22.1608 52.2589 22.5693 52.3407 22.9819 52.3409C23.3229 52.3405 23.6616 52.2851 23.985 52.1768L25.0131 51.8339C25.5787 52.0843 26.1904 52.2139 26.809 52.2143C27.6674 52.2158 28.507 51.9626 29.2214 51.4866L31.6099 49.8942C32.7145 49.1575 33.3895 48.2238 33.5659 47.1914L39.875 44.3879V45.6665C39.875 45.8986 39.9672 46.1211 40.1313 46.2852C40.2954 46.4493 40.5179 46.5415 40.75 46.5415H53C53.2321 46.5415 53.4546 46.4493 53.6187 46.2852C53.7828 46.1211 53.875 45.8986 53.875 45.6665V34.2915C53.875 34.0594 53.7828 33.8369 53.6187 33.6728C53.4546 33.5087 53.2321 33.4165 53 33.4165ZM15.375 44.7915H4.875V35.1665H15.375V44.7915ZM22 50.179L20.2267 48.4057C20.0501 48.2288 19.9241 48.0078 19.8618 47.7657C19.7995 47.5236 19.8032 47.2693 19.8724 47.0291L23.246 50.4048C23.2796 50.4516 23.3153 50.4958 23.3505 50.5408C23.1135 50.6051 22.8637 50.6055 22.6265 50.542C22.3892 50.4784 22.1731 50.3532 22 50.179ZM24.6369 49.3408C24.607 49.2978 24.5734 49.2576 24.5364 49.2205L17.125 41.8043V36.9165H23.7626L25.5126 38.6665L21.7564 42.4228C21.5923 42.5869 21.5001 42.8094 21.5001 43.0415C21.5001 43.2735 21.5923 43.496 21.7564 43.6601L22.2849 44.1887C23.0158 44.9235 23.9844 45.374 25.0173 45.4595C26.0501 45.545 27.0797 45.2599 27.9214 44.6552L29.9105 43.2344L31.2721 45.2769C31.2861 45.2979 31.3011 45.3185 31.3168 45.3383C31.7434 45.8717 31.9218 46.3883 31.8463 46.8748C31.7878 47.1963 31.644 47.4963 31.4299 47.7433L29.1648 45.0975C29.0128 44.9251 28.7991 44.8194 28.5698 44.8032C28.3405 44.7871 28.1141 44.8618 27.9394 45.0113C27.7648 45.1607 27.656 45.3729 27.6365 45.6019C27.617 45.831 27.6884 46.0585 27.8353 46.2353L30.055 48.8274L28.8967 49.5996L26.5397 46.8478C26.3872 46.6772 26.174 46.5731 25.9457 46.5579C25.7174 46.5426 25.4923 46.6173 25.3184 46.7661C25.1446 46.9148 25.036 47.1257 25.0158 47.3536C24.9955 47.5815 25.0654 47.8082 25.2103 47.9853L27.2956 50.4208C26.7955 50.5164 26.2784 50.4653 25.8066 50.2737C25.3349 50.0821 24.9287 49.7581 24.6369 49.3408ZM33.3541 45.3712C33.1916 44.9774 32.9741 44.6087 32.7081 44.276L31.3422 42.2273L35.3285 43.0246C35.5193 43.0627 35.7173 43.0361 35.8913 42.9492L37.6413 42.0742C37.7444 42.023 37.8363 41.9519 37.9118 41.8651C37.9874 41.7783 38.0451 41.6775 38.0816 41.5683C38.1181 41.4592 38.1327 41.344 38.1246 41.2292C38.1165 41.1144 38.0859 41.0023 38.0344 40.8994C37.983 40.7965 37.9117 40.7047 37.8247 40.6294C37.7378 40.554 37.6368 40.4966 37.5276 40.4603C37.4184 40.424 37.3031 40.4097 37.1883 40.418C37.0736 40.4263 36.9616 40.4572 36.8588 40.5089L35.3773 41.2496L31.2966 40.4335C31.1793 40.4099 31.0584 40.4108 30.9414 40.4359C30.8244 40.461 30.7138 40.5099 30.6164 40.5795L26.9041 43.2312C26.4169 43.5812 25.8242 43.7531 25.2253 43.7182C24.6264 43.6833 24.0578 43.4436 23.6145 43.0393L29.7374 36.9165H39.875V42.4728L33.3541 45.3712ZM52.125 44.7915H41.625V35.1665H52.125V44.7915Z" fill="white"/>
</svg>
