<svg width="11" height="10" viewBox="0 0 11 10" fill="none" xmlns="http://www.w3.org/2000/svg">
<path d="M0.400024 1.26123V8.73877C0.400024 9.44458 0.955446 10 1.66126 10H9.13879C9.48425 10 9.81433 9.83472 10.0248 9.62475C10.2501 9.39941 10.4 9.11402 10.4 8.73877V1.26123C10.4 0.555422 9.8446 0 9.13879 0H1.66126C1.28601 0 1.00061 0.150387 0.775271 0.375246C0.564825 0.585692 0.400024 0.915774 0.400024 1.26123ZM1.75158 2.25196C1.75158 1.77149 2.1422 1.35108 2.62267 1.35108C3.11804 1.35108 3.52355 1.77149 3.52355 2.25196C3.52355 2.74732 3.11804 3.13794 2.62267 3.13794C2.1422 3.13794 1.75158 2.74732 1.75158 2.25196ZM4.16882 8.4231V3.84375C4.16882 3.73853 4.27404 3.64868 4.349 3.64868H5.62512C5.8053 3.64868 5.8053 3.85913 5.8053 3.99414C6.16565 3.63379 6.63123 3.54346 7.1117 3.54346C8.28308 3.54346 9.03357 4.09888 9.03357 5.33032V8.42358C9.03357 8.5288 8.94324 8.61865 8.85339 8.61865H7.5321C7.42688 8.61865 7.35193 8.51343 7.35193 8.42358V5.63062C7.35193 5.16504 7.21692 4.90991 6.69128 4.90991C6.03064 4.90991 5.86536 5.34522 5.86536 5.93091V8.42358C5.86536 8.5288 5.76014 8.61865 5.65491 8.61865H4.34852C4.27357 8.61865 4.16834 8.51343 4.16834 8.42358L4.16882 8.4231ZM1.78137 8.4231V3.84375C1.78137 3.73853 1.8866 3.64868 1.96155 3.64868H3.26794C3.38806 3.64868 3.46301 3.72363 3.46301 3.84375V8.4231C3.46301 8.52832 3.37269 8.61817 3.26794 8.61817H1.96155C1.87122 8.61817 1.78137 8.51295 1.78137 8.4231Z" fill="black"/>
</svg>
