<svg width="36" height="35" viewBox="0 0 36 35" fill="none" xmlns="http://www.w3.org/2000/svg">
<path d="M9.97793 21.9697V22.6522H9.76968C9.08718 22.6522 8.53418 23.2069 8.53418 23.8894C8.53418 24.5702 9.08893 25.1249 9.76968 25.1249H11.0734C11.2659 25.1249 11.4217 25.2807 11.4217 25.4749C11.4217 25.6674 11.2659 25.8249 11.0734 25.8249H9.05043C8.80543 25.8249 8.60768 26.0244 8.60768 26.2694C8.60768 26.5144 8.80543 26.7122 9.05043 26.7122H9.97793V27.4069C9.97793 27.6519 10.1757 27.8514 10.4207 27.8514C10.6657 27.8514 10.8634 27.6519 10.8634 27.4069V26.7122H11.0717C11.7542 26.7122 12.3072 26.1574 12.3072 25.4749C12.3072 24.7924 11.7524 24.2377 11.0717 24.2377H9.76793C9.57543 24.2377 9.41968 24.0819 9.41968 23.8894C9.41968 23.6969 9.57543 23.5394 9.76793 23.5394H11.7909C12.0359 23.5394 12.2354 23.3399 12.2354 23.0949C12.2354 22.8499 12.0377 22.6504 11.7909 22.6504H10.8634V21.9679C10.8634 21.7229 10.6657 21.5234 10.4207 21.5234C10.1757 21.5234 9.97793 21.7247 9.97793 21.9697Z" fill="black"/>
<path d="M31.2788 27.3958C31.0075 27.0091 30.864 26.5541 30.864 26.0816V24.1758C30.864 21.8361 29.2908 19.8603 27.1488 19.2408L28.141 18.0946C28.274 17.9406 28.3055 17.7201 28.2215 17.5346C28.1375 17.3491 27.9503 17.2283 27.7455 17.2283H26.3123V11.1733C26.3123 10.8356 26.0375 10.5626 25.7015 10.5626H23.6138C23.3863 7.71534 21.001 5.46484 18.096 5.46484C15.191 5.46484 12.8023 7.71359 12.5748 10.5608H10.5885C10.2508 10.5608 9.97778 10.8356 9.97778 11.1716V17.2266H8.27153C8.05978 17.2266 7.86903 17.3526 7.78853 17.5486C7.70803 17.7446 7.75178 17.9686 7.90228 18.1173L8.98728 19.2023C6.77528 19.7763 5.13553 21.7836 5.13553 24.1723V26.0781C5.13553 26.5506 4.99203 27.0056 4.72078 27.3923L4.23428 28.0836C4.03653 28.3653 4.01203 28.7328 4.17128 29.0373C4.33053 29.3436 4.64378 29.5343 4.98853 29.5343H15.5638C15.9085 29.5343 16.2218 29.3436 16.381 29.0373C16.5403 28.7311 16.5158 28.3653 16.318 28.0836L15.8315 27.3923C15.5603 27.0056 15.4168 26.5506 15.4168 26.0781V24.1723C15.4168 21.8326 13.8435 19.8568 11.7015 19.2373L12.6938 18.0911C12.8268 17.9371 12.8583 17.7166 12.7743 17.5311C12.6903 17.3456 12.503 17.2248 12.2983 17.2248H10.865V11.4481H12.5748C12.8023 14.2953 15.1875 16.5458 18.0925 16.5458C20.9975 16.5458 23.3828 14.2971 23.6103 11.4481H25.4233V17.2283H23.717C23.5053 17.2283 23.3163 17.3543 23.234 17.5503C23.1535 17.7463 23.1973 17.9703 23.3478 18.1208L24.4328 19.2058C22.2208 19.7798 20.581 21.7871 20.581 24.1758V26.0816C20.581 26.5541 20.4375 27.0091 20.1663 27.3958L19.6798 28.0871C19.482 28.3688 19.4575 28.7363 19.6168 29.0408C19.776 29.3471 20.0893 29.5378 20.434 29.5378H31.0093C31.354 29.5378 31.6673 29.3471 31.8265 29.0408C31.9858 28.7346 31.9613 28.3688 31.7635 28.0871L31.2788 27.3958ZM14.5295 24.1758V26.0816C14.5295 26.7378 14.729 27.3696 15.107 27.9068L15.5935 28.5981C15.5988 28.6051 15.6058 28.6156 15.5953 28.6331C15.5848 28.6523 15.5725 28.6523 15.5655 28.6523H4.98853C4.97978 28.6523 4.96753 28.6523 4.95878 28.6331C4.94828 28.6138 4.95703 28.6033 4.96053 28.5981L5.44703 27.9068C5.82503 27.3696 6.02453 26.7396 6.02453 26.0816V24.1758C6.02453 21.8308 7.93203 19.9233 10.277 19.9233C12.622 19.9233 14.5295 21.8291 14.5295 24.1758ZM10.6865 19.0553C10.55 19.0448 10.4135 19.0343 10.2753 19.0343C10.2088 19.0343 10.1458 19.0413 10.081 19.0448L9.15178 18.1156H11.5003L10.6865 19.0553ZM18.0943 15.6586C15.5288 15.6586 13.441 13.5708 13.441 11.0053C13.441 8.43984 15.5288 6.35209 18.0943 6.35209C20.6598 6.35209 22.7475 8.43984 22.7475 11.0053C22.7475 13.5708 20.6598 15.6586 18.0943 15.6586ZM24.599 18.1156H26.9475L26.1338 19.0553C25.9973 19.0448 25.8608 19.0343 25.7225 19.0343C25.656 19.0343 25.593 19.0413 25.5283 19.0448L24.599 18.1156ZM31.0408 28.6331C31.032 28.6523 31.018 28.6523 31.011 28.6523H20.4358C20.427 28.6523 20.4148 28.6523 20.406 28.6331C20.3955 28.6138 20.4043 28.6033 20.4078 28.5981L20.8943 27.9068C21.2723 27.3696 21.4718 26.7396 21.4718 26.0816V24.1758C21.4718 21.8308 23.3793 19.9233 25.7243 19.9233C28.0693 19.9233 29.9768 21.8308 29.9768 24.1758V26.0816C29.9768 26.7378 30.1763 27.3696 30.5543 27.9068L31.0408 28.5981C31.0443 28.6051 31.0513 28.6156 31.0408 28.6331Z" fill="black"/>
<path d="M26.5205 24.2377H25.2167C25.0242 24.2377 24.8685 24.0819 24.8685 23.8894C24.8685 23.6969 25.0242 23.5394 25.2167 23.5394H27.2397C27.4847 23.5394 27.6825 23.3399 27.6825 23.0949C27.6825 22.8499 27.4847 22.6504 27.2397 22.6504H26.3122V21.9679C26.3122 21.7229 26.1145 21.5234 25.8677 21.5234C25.621 21.5234 25.4232 21.7212 25.4232 21.9679V22.6504H25.215C24.5325 22.6504 23.9795 23.2052 23.9795 23.8877C23.9795 24.5684 24.5342 25.1232 25.215 25.1232H26.5187C26.7112 25.1232 26.867 25.2789 26.867 25.4732C26.867 25.6657 26.7112 25.8232 26.5187 25.8232H24.4957C24.2507 25.8232 24.0512 26.0227 24.0512 26.2677C24.0512 26.5127 24.249 26.7104 24.4957 26.7104H25.4232V27.4052C25.4232 27.6502 25.621 27.8497 25.8677 27.8497C26.1145 27.8497 26.3122 27.6502 26.3122 27.4052V26.7104H26.5205C27.203 26.7104 27.756 26.1557 27.756 25.4732C27.756 24.7924 27.203 24.2377 26.5205 24.2377Z" fill="black"/>
<path d="M20.329 10.559H18.537V8.76697C18.537 8.52197 18.3393 8.32422 18.0925 8.32422C17.8475 8.32422 17.6498 8.52197 17.6498 8.76697V10.559H15.8595C15.6145 10.559 15.415 10.7567 15.415 11.0035C15.415 11.2485 15.6128 11.4462 15.8595 11.4462H17.6498V13.2382C17.6498 13.4832 17.8475 13.6827 18.0925 13.6827C18.3375 13.6827 18.537 13.485 18.537 13.2382V11.4462H20.329C20.574 11.4462 20.7735 11.2485 20.7735 11.0035C20.7718 10.7567 20.574 10.559 20.329 10.559Z" fill="black"/>
</svg>
