<svg width="55" height="54" viewBox="0 0 55 54" fill="none" xmlns="http://www.w3.org/2000/svg">
<path d="M53.1668 20.8659H48.2448C47.8346 19.511 47.292 18.1998 46.6248 16.9512L50.1043 13.4718C50.323 13.253 50.4459 12.9562 50.4459 12.6468C50.4459 12.3374 50.323 12.0406 50.1043 11.8219L42.8446 4.56169C42.6258 4.3429 42.329 4.21999 42.0196 4.21999C41.7102 4.21999 41.4134 4.3429 41.1947 4.56169L37.7152 8.04115C36.4665 7.37392 35.1551 6.83129 33.8001 6.42112V1.49919C33.8001 1.18977 33.6772 0.893021 33.4584 0.674228C33.2396 0.455436 32.9428 0.33252 32.6334 0.33252H22.3668C22.0573 0.33252 21.7606 0.455436 21.5418 0.674228C21.323 0.893021 21.2001 1.18977 21.2001 1.49919V6.42112C19.8452 6.83132 18.534 7.37395 17.2854 8.04115L13.8055 4.56169C13.5867 4.3429 13.29 4.21999 12.9806 4.21999C12.6712 4.21999 12.3744 4.3429 12.1556 4.56169L4.89592 11.8214C4.67713 12.0402 4.55421 12.3369 4.55421 12.6463C4.55421 12.9558 4.67713 13.2525 4.89592 13.4713L8.37538 16.9508C7.70815 18.1994 7.16552 19.5108 6.75535 20.8659H1.83341C1.524 20.8659 1.22725 20.9888 1.00846 21.2076C0.789664 21.4264 0.666748 21.7231 0.666748 22.0325V32.2992C0.666748 32.6086 0.789664 32.9054 1.00846 33.1241C1.22725 33.3429 1.524 33.4659 1.83341 33.4659H6.75535C7.16555 34.8207 7.70818 36.132 8.37538 37.3805L4.89592 40.8604C4.67713 41.0792 4.55421 41.376 4.55421 41.6854C4.55421 41.9948 4.67713 42.2915 4.89592 42.5103L12.1556 49.77C12.3744 49.9888 12.6712 50.1117 12.9806 50.1117C13.29 50.1117 13.5867 49.9888 13.8055 49.77L17.285 46.2906C18.5337 46.9578 19.845 47.5004 21.2001 47.9106V52.8325C21.2001 53.1419 21.323 53.4387 21.5418 53.6575C21.7606 53.8763 22.0573 53.9992 22.3668 53.9992H32.6334C32.9428 53.9992 33.2396 53.8763 33.4584 53.6575C33.6772 53.4387 33.8001 53.1419 33.8001 52.8325V47.9106C35.155 47.5004 36.4662 46.9578 37.7147 46.2906L41.1942 49.77C41.413 49.9888 41.7097 50.1117 42.0191 50.1117C42.3285 50.1117 42.6253 49.9888 42.8441 49.77L50.1038 42.5103C50.3226 42.2915 50.4455 41.9948 50.4455 41.6854C50.4455 41.376 50.3226 41.0792 50.1038 40.8604L46.6243 37.381C47.2917 36.1323 47.8345 34.8209 48.2448 33.4659H53.1668C53.4762 33.4659 53.7729 33.3429 53.9917 33.1241C54.2105 32.9054 54.3334 32.6086 54.3334 32.2992V22.0325C54.3334 21.7231 54.2105 21.4264 53.9917 21.2076C53.7729 20.9888 53.4762 20.8659 53.1668 20.8659ZM52.0001 31.1325H47.3607C47.1021 31.1329 46.8509 31.219 46.6464 31.3773C46.4419 31.5357 46.2956 31.7573 46.2304 32.0075C45.7809 33.7552 45.0867 35.4306 44.1685 36.9841C44.0369 37.2072 43.9832 37.4677 44.0157 37.7246C44.0483 37.9816 44.1653 38.2204 44.3484 38.4037L47.6298 41.685L42.0197 47.2955L38.7384 44.0142C38.5557 43.8302 38.3167 43.7126 38.0595 43.68C37.8023 43.6474 37.5416 43.7017 37.3188 43.8343C35.7653 44.7525 34.0899 45.4467 32.3422 45.8962C32.092 45.9614 31.8703 46.1077 31.712 46.3122C31.5537 46.5167 31.4676 46.7679 31.4672 47.0265V51.6659H23.5334V47.0265C23.533 46.7679 23.4469 46.5167 23.2886 46.3122C23.1303 46.1077 22.9087 45.9614 22.6584 45.8962C20.9108 45.4467 19.2354 44.7525 17.6819 43.8343C17.459 43.7018 17.1983 43.6476 16.9412 43.6802C16.684 43.7128 16.4451 43.8303 16.2623 44.0142L12.9804 47.2955L7.37041 41.6855L10.6518 38.4041C10.8349 38.2209 10.9519 37.982 10.9844 37.7251C11.017 37.4681 10.9633 37.2076 10.8317 36.9845C9.91346 35.431 9.21928 33.7556 8.76972 32.008C8.70452 31.7577 8.55824 31.5361 8.35375 31.3778C8.14925 31.2195 7.89806 31.1334 7.63945 31.133H3.00008V23.1992H7.63945C7.89806 23.1988 8.14925 23.1127 8.35375 22.9544C8.55824 22.7961 8.70452 22.5744 8.76972 22.3242C9.21924 20.5764 9.91342 18.9008 10.8317 17.3472C10.9633 17.1241 11.017 16.8636 10.9844 16.6066C10.9519 16.3497 10.8349 16.1108 10.6518 15.9276L7.37041 12.6462L12.9804 7.03619L16.2618 10.3176C16.4449 10.5009 16.6838 10.6181 16.9408 10.6507C17.1978 10.6833 17.4584 10.6294 17.6814 10.4975C19.2349 9.57923 20.9103 8.88505 22.6579 8.43549C22.9082 8.37029 23.1298 8.22401 23.2881 8.01952C23.4464 7.81502 23.5325 7.56383 23.5329 7.30522V2.66585H31.4663V7.30522C31.4667 7.56383 31.5528 7.81502 31.7111 8.01952C31.8694 8.22401 32.091 8.37029 32.3413 8.43549C34.0889 8.88505 35.7643 9.57923 37.3178 10.4975C37.5408 10.6294 37.8014 10.6833 38.0584 10.6507C38.3155 10.6181 38.5544 10.5009 38.7374 10.3176L42.0197 7.03619L47.6298 12.6462L44.3484 15.9276C44.1653 16.1108 44.0483 16.3497 44.0157 16.6066C43.9832 16.8636 44.0369 17.1241 44.1685 17.3472C45.0867 18.9007 45.7809 20.5761 46.2304 22.3237C46.2956 22.574 46.4419 22.7956 46.6464 22.9539C46.8509 23.1122 47.1021 23.1983 47.3607 23.1987H52.0001V31.1325Z" fill="white"/>
</svg>
